<svg width="866" height="866" viewBox="0 0 866 866" fill="none" xmlns="http://www.w3.org/2000/svg">
<circle opacity="0.15" cx="216.5" cy="432.5" r="216.5" fill="#E6A3BA"/>
<circle opacity="0.4" cx="649.5" cy="432.5" r="216.5" fill="#E7AF98" fill-opacity="0.15"/>
<circle opacity="0.15" cx="433.5" cy="649.5" r="216.5" fill="#6695A9" fill-opacity="0.4"/>
<path fill-rule="evenodd" clip-rule="evenodd" d="M432.999 433.001C432.73 552.173 336.173 648.73 217.001 648.999C217.27 529.827 313.827 433.27 432.999 433.001Z" fill="#ACB7C8"/>
<path fill-rule="evenodd" clip-rule="evenodd" d="M433.001 433.001C433.167 433 433.333 433 433.5 433C552.903 433 649.729 529.66 649.999 648.999C649.833 649 649.667 649 649.5 649C530.097 649 433.271 552.34 433.001 433.001Z" fill="#ADBAC0"/>
<circle opacity="0.15" cx="433.5" cy="216.5" r="216.5" fill="#B2C3AC"/>
<path fill-rule="evenodd" clip-rule="evenodd" d="M433.5 433C553.07 433 650 336.07 650 216.5C650 216.333 650 216.167 649.999 216.001C649.833 216 649.667 216 649.5 216C529.93 216 433 312.93 433 432.5C433 432.667 433 432.833 433.001 432.999C433.167 433 433.333 433 433.5 433Z" fill="#CBC7B4"/>
<path fill-rule="evenodd" clip-rule="evenodd" d="M432.999 432.999C313.66 432.729 217 335.903 217 216.5C217 216.333 217 216.167 217.001 216.001C336.34 216.271 433 313.097 433 432.5C433 432.667 433 432.833 432.999 432.999Z" fill="#CBC4BD"/>
<path d="M142.55 445H149.432V418.175H144.437V438.636L133.707 418.175H126.825V445H131.82V424.539L142.55 445ZM157.543 436.453H172.232C172.454 429.423 168.606 424.65 162.464 424.65C156.581 424.65 152.474 429.053 152.474 434.973C152.474 440.708 156.211 445.481 162.612 445.481C168.014 445.481 170.937 442.188 172.01 439.228H166.756C165.72 440.967 164.129 441.522 162.575 441.522C160.17 441.522 157.802 439.857 157.543 436.453ZM157.617 432.938C158.024 429.608 160.503 428.387 162.427 428.387C164.573 428.387 166.941 429.571 167.052 432.938H157.617ZM183.878 425.094L180.77 438.858L178.106 425.094H173.037L177.699 445H182.953L186.616 429.904L190.242 445H195.496L200.195 425.094H195.126L192.462 438.821L189.317 425.094H183.878ZM215.105 418.175H209.814V433.641C209.814 442.484 213.107 445.481 220.951 445.481C228.795 445.481 232.014 442.484 232.014 433.641V418.175H226.723V433.678C226.723 438.414 225.835 441.263 220.951 441.263C216.067 441.263 215.105 438.414 215.105 433.678V418.175ZM247.075 431.088H251.848C251.182 426.5 247.223 424.576 243.079 424.576C238.787 424.576 234.939 426.907 234.939 430.496C234.939 434.122 237.418 435.676 241.155 436.453L244.115 437.082C245.817 437.452 247.371 438.044 247.371 439.524C247.371 440.967 245.965 441.781 243.782 441.781C241.155 441.781 239.786 440.338 239.49 438.414H234.569C235.05 442.965 238.75 445.481 243.634 445.481C248.148 445.481 252.255 443.039 252.255 439.043C252.255 434.936 248.888 433.937 244.929 433.049L242.265 432.457C240.378 432.05 239.601 431.236 239.601 430.163C239.601 428.942 240.933 428.239 242.82 428.239C245.151 428.239 246.705 429.423 247.075 431.088ZM259.033 436.453H273.722C273.944 429.423 270.096 424.65 263.954 424.65C258.071 424.65 253.964 429.053 253.964 434.973C253.964 440.708 257.701 445.481 264.102 445.481C269.504 445.481 272.427 442.188 273.5 439.228H268.246C267.21 440.967 265.619 441.522 264.065 441.522C261.66 441.522 259.292 439.857 259.033 436.453ZM259.107 432.938C259.514 429.608 261.993 428.387 263.917 428.387C266.063 428.387 268.431 429.571 268.542 432.938H259.107ZM288.037 430.015V425.205C287.704 425.168 287.26 425.131 286.927 425.131C284.633 425.131 282.82 426.13 281.673 428.572V425.094H276.641V445H281.747V434.566C281.747 430.829 283.412 429.904 285.928 429.904C286.668 429.904 287.297 429.941 288.037 430.015ZM301.501 431.088H306.274C305.608 426.5 301.649 424.576 297.505 424.576C293.213 424.576 289.365 426.907 289.365 430.496C289.365 434.122 291.844 435.676 295.581 436.453L298.541 437.082C300.243 437.452 301.797 438.044 301.797 439.524C301.797 440.967 300.391 441.781 298.208 441.781C295.581 441.781 294.212 440.338 293.916 438.414H288.995C289.476 442.965 293.176 445.481 298.06 445.481C302.574 445.481 306.681 443.039 306.681 439.043C306.681 434.936 303.314 433.937 299.355 433.049L296.691 432.457C294.804 432.05 294.027 431.236 294.027 430.163C294.027 428.942 295.359 428.239 297.246 428.239C299.577 428.239 301.131 429.423 301.501 431.088Z" fill="#6D3146"/>
<path d="M529.435 418.175V445H548.971V440.708H534.726V433.419H548.194V429.127H534.726V422.467H548.971V418.175H529.435ZM562.261 434.603L569.254 425.094H564.037L559.745 430.977L555.601 425.094H549.903L556.822 434.973L549.496 445H554.676L559.338 438.599L563.852 445H569.587L562.261 434.603ZM576.616 418.175H571.51V422.911H576.616V418.175ZM576.616 425.094H571.51V445H576.616V425.094ZM592.034 431.088H596.807C596.141 426.5 592.182 424.576 588.038 424.576C583.746 424.576 579.898 426.907 579.898 430.496C579.898 434.122 582.377 435.676 586.114 436.453L589.074 437.082C590.776 437.452 592.33 438.044 592.33 439.524C592.33 440.967 590.924 441.781 588.741 441.781C586.114 441.781 584.745 440.338 584.449 438.414H579.528C580.009 442.965 583.709 445.481 588.593 445.481C593.107 445.481 597.214 443.039 597.214 439.043C597.214 434.936 593.847 433.937 589.888 433.049L587.224 432.457C585.337 432.05 584.56 431.236 584.56 430.163C584.56 428.942 585.892 428.239 587.779 428.239C590.11 428.239 591.664 429.423 592.034 431.088ZM600.993 419.692V425.094H598.181V428.609H600.993V439.635C600.993 443.594 601.881 445 606.432 445H610.169V441.337H608.615C606.802 441.337 606.099 440.93 606.099 438.895V428.609H610.243V425.094H606.099V419.692H600.993ZM618.251 418.175H613.145V422.911H618.251V418.175ZM618.251 425.094H613.145V445H618.251V425.094ZM627.564 427.721V425.094H622.458V445H627.564V434.64C627.564 431.495 628.304 428.757 631.671 428.757C634.557 428.757 635.112 430.977 635.112 433.567V445H640.218V432.457C640.218 427.573 638.109 424.65 633.336 424.65C630.894 424.65 628.711 425.723 627.564 427.721ZM662.26 425.094H657.191V427.684C656.303 425.945 654.009 424.65 651.493 424.65C646.498 424.65 642.835 428.794 642.835 434.455C642.835 440.264 646.572 444.297 651.493 444.297C653.565 444.297 655.896 443.483 657.191 441.3V443.964C657.191 446.961 655.415 448.219 652.751 448.219C650.42 448.219 649.088 447.442 648.644 445.777H643.797C644.463 450.439 648.237 451.956 652.492 451.956C658.597 451.956 662.26 449.514 662.26 443.002V425.094ZM657.376 434.455C657.376 437.97 655.637 440.412 652.788 440.412C650.161 440.412 648.2 437.785 648.2 434.492C648.2 431.162 650.161 428.535 652.788 428.535C655.637 428.535 657.376 430.977 657.376 434.455ZM679.495 418.175H674.204V433.641C674.204 442.484 677.497 445.481 685.341 445.481C693.185 445.481 696.404 442.484 696.404 433.641V418.175H691.113V433.678C691.113 438.414 690.225 441.263 685.341 441.263C680.457 441.263 679.495 438.414 679.495 433.678V418.175ZM711.465 431.088H716.238C715.572 426.5 711.613 424.576 707.469 424.576C703.177 424.576 699.329 426.907 699.329 430.496C699.329 434.122 701.808 435.676 705.545 436.453L708.505 437.082C710.207 437.452 711.761 438.044 711.761 439.524C711.761 440.967 710.355 441.781 708.172 441.781C705.545 441.781 704.176 440.338 703.88 438.414H698.959C699.44 442.965 703.14 445.481 708.024 445.481C712.538 445.481 716.645 443.039 716.645 439.043C716.645 434.936 713.278 433.937 709.319 433.049L706.655 432.457C704.768 432.05 703.991 431.236 703.991 430.163C703.991 428.942 705.323 428.239 707.21 428.239C709.541 428.239 711.095 429.423 711.465 431.088ZM723.423 436.453H738.112C738.334 429.423 734.486 424.65 728.344 424.65C722.461 424.65 718.354 429.053 718.354 434.973C718.354 440.708 722.091 445.481 728.492 445.481C733.894 445.481 736.817 442.188 737.89 439.228H732.636C731.6 440.967 730.009 441.522 728.455 441.522C726.05 441.522 723.682 439.857 723.423 436.453ZM723.497 432.938C723.904 429.608 726.383 428.387 728.307 428.387C730.453 428.387 732.821 429.571 732.932 432.938H723.497ZM752.426 430.015V425.205C752.093 425.168 751.649 425.131 751.316 425.131C749.022 425.131 747.209 426.13 746.062 428.572V425.094H741.03V445H746.136V434.566C746.136 430.829 747.801 429.904 750.317 429.904C751.057 429.904 751.686 429.941 752.426 430.015ZM765.891 431.088H770.664C769.998 426.5 766.039 424.576 761.895 424.576C757.603 424.576 753.755 426.907 753.755 430.496C753.755 434.122 756.234 435.676 759.971 436.453L762.931 437.082C764.633 437.452 766.187 438.044 766.187 439.524C766.187 440.967 764.781 441.781 762.598 441.781C759.971 441.781 758.602 440.338 758.306 438.414H753.385C753.866 442.965 757.566 445.481 762.45 445.481C766.964 445.481 771.071 443.039 771.071 439.043C771.071 434.936 767.704 433.937 763.745 433.049L761.081 432.457C759.194 432.05 758.417 431.236 758.417 430.163C758.417 428.942 759.749 428.239 761.636 428.239C763.967 428.239 765.521 429.423 765.891 431.088Z" fill="#9D4225"/>
<path d="M364.966 662H370.22L376.806 641.835V662H381.727V635.175H373.957L367.63 656.08L361.118 635.175H353.422V662H358.343V641.835L364.966 662ZM389.812 653.453H404.501C404.723 646.423 400.875 641.65 394.733 641.65C388.85 641.65 384.743 646.053 384.743 651.973C384.743 657.708 388.48 662.481 394.881 662.481C400.283 662.481 403.206 659.188 404.279 656.228H399.025C397.989 657.967 396.398 658.522 394.844 658.522C392.439 658.522 390.071 656.857 389.812 653.453ZM389.886 649.938C390.293 646.608 392.772 645.387 394.696 645.387C396.842 645.387 399.21 646.571 399.321 649.938H389.886ZM428.732 645.757C431.729 645.757 431.914 648.236 431.914 650.419V662H437.02V649.457C437.02 644.758 435.281 641.65 430.286 641.65C427.289 641.65 425.291 642.686 423.737 644.906C422.96 643.463 421.48 641.65 418.076 641.65C415.671 641.65 413.636 642.76 412.526 644.721V642.094H407.42V662H412.526V651.64C412.526 648.606 413.081 645.757 416.485 645.757C419.482 645.757 419.667 648.236 419.667 650.419V662H424.773V651.64C424.773 648.606 425.328 645.757 428.732 645.757ZM440.943 662H446.049V659.484C447.307 661.667 449.712 662.481 451.784 662.481C456.52 662.481 460.442 658.411 460.442 652.047C460.442 645.794 456.594 641.65 451.784 641.65C449.268 641.65 447.122 642.797 446.049 644.647V635.175H440.943V662ZM455.077 652.084C455.077 655.969 453.153 658.559 450.526 658.559C447.714 658.559 445.864 656.117 445.864 652.047C445.864 648.051 447.714 645.572 450.526 645.572C453.153 645.572 455.077 648.199 455.077 652.084ZM467.436 653.453H482.125C482.347 646.423 478.499 641.65 472.357 641.65C466.474 641.65 462.367 646.053 462.367 651.973C462.367 657.708 466.104 662.481 472.505 662.481C477.907 662.481 480.83 659.188 481.903 656.228H476.649C475.613 657.967 474.022 658.522 472.468 658.522C470.063 658.522 467.695 656.857 467.436 653.453ZM467.51 649.938C467.917 646.608 470.396 645.387 472.32 645.387C474.466 645.387 476.834 646.571 476.945 649.938H467.51ZM496.44 647.015V642.205C496.107 642.168 495.663 642.131 495.33 642.131C493.036 642.131 491.223 643.13 490.076 645.572V642.094H485.044V662H490.15V651.566C490.15 647.829 491.815 646.904 494.331 646.904C495.071 646.904 495.7 646.941 496.44 647.015ZM509.904 648.088H514.677C514.011 643.5 510.052 641.576 505.908 641.576C501.616 641.576 497.768 643.907 497.768 647.496C497.768 651.122 500.247 652.676 503.984 653.453L506.944 654.082C508.646 654.452 510.2 655.044 510.2 656.524C510.2 657.967 508.794 658.781 506.611 658.781C503.984 658.781 502.615 657.338 502.319 655.414H497.398C497.879 659.965 501.579 662.481 506.463 662.481C510.977 662.481 515.084 660.039 515.084 656.043C515.084 651.936 511.717 650.937 507.758 650.049L505.094 649.457C503.207 649.05 502.43 648.236 502.43 647.163C502.43 645.942 503.762 645.239 505.649 645.239C507.98 645.239 509.534 646.423 509.904 648.088Z" fill="#404A63"/>
<path d="M381.546 229.481C389.538 229.481 394.681 223.894 394.681 215.569C394.681 207.244 389.538 201.694 381.546 201.694C373.554 201.694 368.411 207.244 368.411 215.569C368.411 223.894 373.554 229.481 381.546 229.481ZM381.546 225.263C377.365 225.263 373.887 221.859 373.887 215.569C373.887 209.279 377.365 205.912 381.546 205.912C385.727 205.912 389.205 209.279 389.205 215.569C389.205 221.859 385.727 225.263 381.546 225.263ZM406.673 209.094L403.565 222.858L400.901 209.094H395.832L400.494 229H405.748L409.411 213.904L413.037 229H418.291L422.99 209.094H417.921L415.257 222.821L412.112 209.094H406.673ZM430.034 211.721V209.094H424.928V229H430.034V218.64C430.034 215.495 430.774 212.757 434.141 212.757C437.027 212.757 437.582 214.977 437.582 217.567V229H442.688V216.457C442.688 211.573 440.579 208.65 435.806 208.65C433.364 208.65 431.181 209.723 430.034 211.721ZM450.373 220.453H465.062C465.284 213.423 461.436 208.65 455.294 208.65C449.411 208.65 445.304 213.053 445.304 218.973C445.304 224.708 449.041 229.481 455.442 229.481C460.844 229.481 463.767 226.188 464.84 223.228H459.586C458.55 224.967 456.959 225.522 455.405 225.522C453 225.522 450.632 223.857 450.373 220.453ZM450.447 216.938C450.854 213.608 453.333 212.387 455.257 212.387C457.403 212.387 459.771 213.571 459.882 216.938H450.447ZM479.377 214.015V209.205C479.044 209.168 478.6 209.131 478.267 209.131C475.973 209.131 474.16 210.13 473.013 212.572V209.094H467.981V229H473.087V218.566C473.087 214.829 474.752 213.904 477.268 213.904C478.008 213.904 478.637 213.941 479.377 214.015ZM492.842 215.088H497.615C496.949 210.5 492.99 208.576 488.846 208.576C484.554 208.576 480.706 210.907 480.706 214.496C480.706 218.122 483.185 219.676 486.922 220.453L489.882 221.082C491.584 221.452 493.138 222.044 493.138 223.524C493.138 224.967 491.732 225.781 489.549 225.781C486.922 225.781 485.553 224.338 485.257 222.414H480.336C480.817 226.965 484.517 229.481 489.401 229.481C493.915 229.481 498.022 227.039 498.022 223.043C498.022 218.936 494.655 217.937 490.696 217.049L488.032 216.457C486.145 216.05 485.368 215.236 485.368 214.163C485.368 212.942 486.7 212.239 488.587 212.239C490.918 212.239 492.472 213.423 492.842 215.088Z" fill="#404A63"/>
</svg>
