<?xml version="1.0" encoding="utf-8"?>
<!-- Generator: Adobe Illustrator 26.0.1, SVG Export Plug-In . SVG Version: 6.00 Build 0)  -->
<svg version="1.1" id="Layer_1" xmlns="http://www.w3.org/2000/svg" xmlns:xlink="http://www.w3.org/1999/xlink" x="0px" y="0px"
	 viewBox="0 0 512 512" style="enable-background:new 0 0 512 512;" xml:space="preserve">
<style type="text/css">
	.st0{fill:#CDDDD6;}
	.st1{fill:#82AA9A;}
	.st2{fill:#FFFFFF;}
	.st3{fill:#065535;}
</style>
<path class="st0" d="M470.4,261.6c0-61-28.9-108.9-89.9-108.9h-17.3c-33,0-56.9,15.7-74.2,41.2c-5.8,5.8-8.2,8.2-8.2,8.2v-33
	c0-3.3-4.9-8.2-8.2-8.2H190c-3.3,0-8.2,3.3-8.2,7.4V476c0,3.3,4.9,6.6,8.2,6.6h90.7c3.3,0,8.2-3.3,8.2-6.6V297.8
	c0-30.5,23.1-56.1,53.6-56.9c15.7,0,29.7,5.8,40.4,16.5c9.9,9.9,14,23.9,14,39.6v177.3c0,3.3,4.9,8.2,8.2,8.2H463
	c3.3,0,8.2-4.9,8.2-8.2V261.6H470.4L470.4,261.6z"/>
<path class="st1" d="M388.8,152.7h-8.2c61,0,89.9,47.8,89.9,108.9l0,0v212.8c0,3.3-4.9,8.2-8.2,8.2H487c3.3,0,8.2-4.9,8.2-8.2V261.6
	l0,0C495.2,200.5,449.8,152.7,388.8,152.7"/>
<path class="st0" d="M111.7,482.6H62.2c-6.6,0-12.4-7.4-12.4-16.5V177.4c0-9.1,4.9-16.5,11.5-16.5h50.3c6.6,0,12.4,7.4,12.4,16.5
	v289.5C124.1,475.1,118.3,482.6,111.7,482.6"/>
<g>
	<path class="st2" d="M49.8,466.1V177.4c0-9.1,4.9-16.5,11.5-16.5h46.2h-0.8h-66c-9.1,0-15.7,7.4-15.7,16.5V466
		c0,9.1,7.4,16.5,16.5,16.5h19.8C55.6,481.7,49.8,474.3,49.8,466.1"/>
	<path class="st2" d="M124.1,177.4L124.1,177.4L124.1,177.4L124.1,177.4"/>
</g>
<path class="st0" d="M86.9,12.5c24.7,0,45.4,26.4,45.4,57.7c0,33-21.4,58.6-45.4,57.7c-23.9,0.8-45.4-24.7-45.4-57.7
	C41.6,38.1,62.2,12.5,86.9,12.5"/>
<path class="st2" d="M41.6,70.2c0-29.7,17.3-53.6,40.4-57.7c-2.5,0-4.9,0-6.6,0c-32.2,0-58.6,25.6-58.6,57.7
	c0,33,27.2,58.6,57.7,57.7c2.5,0,4.9,0,6.6,0C59.7,124.7,41.6,100.8,41.6,70.2"/>
<path class="st3" d="M76.2,136.2c-0.8,0-1.6,0-1.6,0c-16.5,0.8-33.8-6.6-46.2-19S8.6,88.4,8.6,70.2c0-17.3,6.6-33.8,19.8-47
	c12.4-12.4,28.9-19,47-19l0,0l0,0c17.3,0,33.8,6.6,46.2,19.8c12.4,12.4,19.8,28.9,19,46.2c0,18.1-7.4,34.6-19.8,47
	S92.7,136.2,76.2,136.2z M74.6,119.7c13.2,0.8,25.6-4.9,34.6-14c9.9-9.1,14.8-22.3,14.8-35.5s-4.9-25.6-14.8-35.5
	c-9.1-9.1-21.4-14-33.8-14l0,0c-14,0-26.4,4.9-35.5,14C30,44.7,25.1,57,25.1,70.2s4.9,26.4,14.8,35.5
	C49,114.8,62.2,119.7,74.6,119.7z"/>
<path class="st3" d="M107.6,490.8h-66c-13.2,0-24.7-11.5-24.7-24.7V268.2c0-4.9,3.3-8.2,8.2-8.2s8.2,3.3,8.2,8.2v197.9
	c0,4.1,4.1,8.2,8.2,8.2h66c4.1,0,8.2-3.3,8.2-7.4V177.4c0-4.1-4.1-8.2-8.2-8.2H40.8c-4.1,0-7.4,4.1-7.4,8.2v24.7
	c0,4.9-3.3,8.2-8.2,8.2S17,207,17,202.1v-24.7c0-14,10.7-24.7,23.9-24.7h66.8c13.2,0,24.7,11.5,24.7,24.7v289.5
	C132.3,479.3,120.8,490.8,107.6,490.8z"/>
<path class="st3" d="M33.3,235.2c0-4.9-3.3-8.2-8.2-8.2s-8.2,3.3-8.2,8.2s3.3,8.2,8.2,8.2S33.3,240.1,33.3,235.2"/>
<path class="st3" d="M486.9,490.8h-82.5c-8.2,0-16.5-8.2-16.5-16.5V297c0-14.8-3.3-26.4-11.5-33.8c-9.1-9.1-21.4-14-34.6-14
	c-25.6,0-45.4,21.4-45.4,48.7V476c0,9.1-9.1,14.8-16.5,14.8h-90.7c-7.4,0-16.5-5.8-16.5-14.8V168.4c0-9.1,9.1-15.7,16.5-15.7h82.5
	c8.2,0,16.5,8.2,16.5,16.5v11.5c19.8-22.3,50.3-36.3,82.5-36.3H388c65.1,0,115.5,51.1,115.5,117.1v212.8
	C503.4,482.6,495.2,490.8,486.9,490.8z M405.3,474.3h80.8l0.8-0.8V261.6c0-56.1-42.9-100.6-98.1-100.6h-17.3
	c-30.5,0-59.4,14.8-75.9,37.9l-0.8,0.8L272.5,222v-52l-0.8-0.8H190l0,0v305.1h90.7V297.8c0-36.3,27.2-64.3,61.8-65.1
	c17.3,0,33.8,6.6,46.2,19c10.7,10.7,15.7,25.6,15.7,45.4L405.3,474.3C404.4,473.5,405.3,474.3,405.3,474.3z"/>
</svg>
