<?xml version="1.0" encoding="utf-8"?>
<!-- Generator: Adobe Illustrator 25.1.0, SVG Export Plug-In . SVG Version: 6.00 Build 0)  -->
<svg version="1.1" xmlns="http://www.w3.org/2000/svg" xmlns:xlink="http://www.w3.org/1999/xlink" x="0px" y="0px"
	 viewBox="0 0 332 86" style="enable-background:new 0 0 332 86;" xml:space="preserve">
<style type="text/css">
	.st0{display:none;fill:#FF1493;}
	.st1{fill:#FF1493;}
	.st2{display:none;fill:#FFFFFF;}
	.st3{fill:#FFFFFF;}
	.st4{display:none;}
	.st5{display:inline;}
	.st6{display:none;fill:#969696;}
	.st7{fill:#969696;}
	.st8{fill:#333333;}
</style>
<g id="Layer_1">
	<g id="Layer_2_1_">
		<g id="Layer_1_1_">
			<path class="st0" d="M0,68c-0.1,0.9,0.4,1.4,1.1,1.4h5.4c0.5,0,1-0.5,1.1-0.9l3.5-22.7c0.1,0,0.2,0,0.2,0l10.6,23.6
				c0.2,0.4,0.5,0.7,1,0.7H24c0.5,0,0.9-0.3,1-0.7l10.5-23.6c0,0,0.1,0,0.2,0l3.5,22.7c0.1,0.4,0.6,0.9,1.1,0.9h5.5
				c0.8,0,1.3-0.5,1.1-1.4l-7.1-40.3c-0.1-0.5-0.4-0.9-1.1-0.9h-1c-0.5,0-0.8,0.2-1,0.6L23.6,55.7c-0.1,0-0.1,0-0.2,0L10.2,27.4
				c-0.2-0.4-0.5-0.6-1-0.6h-1c-0.7,0-1,0.4-1.1,0.9L0,68z M55.1,68.3c0,0.6,0.5,1.1,1.1,1.1h24.4c0.7,0,1.1-0.5,1.1-1.1v-4.9
				c0-0.6-0.5-1.1-1.1-1.1H62.9V51.7h14.8c0.6,0,1.1-0.5,1.1-1.1v-5c0-0.6-0.5-1.1-1.1-1.1H62.9v-9.8h17.8c0.7,0,1.1-0.5,1.1-1.1
				v-4.9c0-0.6-0.5-1.1-1.1-1.1H56.3c-0.7,0-1.1,0.5-1.1,1.1v39.6H55.1z M87.2,48.5c0,12,9.6,21.5,21.5,21.5
				c8.7,0,14.9-3.9,14.9-3.9c0.2-0.2,0.5-0.5,0.5-1V49.7c0-0.6-0.5-1.1-1.1-1.1h-11.5c-0.7,0-1.1,0.5-1.1,1.1v4.7
				c0,0.6,0.5,1.1,1.1,1.1h4.8v5.1c-1.2,0.5-3.8,1.5-7.1,1.5c-7.6,0-13.5-6.3-13.5-13.7c0-7.5,5.9-13.9,13.4-13.9
				c3.3,0,6.5,1.2,9.1,3.5c0.5,0.5,1.1,0.5,1.6,0l3.7-3.9c0.5-0.5,0.4-1.2-0.1-1.7c-4.1-3.5-9.2-5.6-14.6-5.6
				C96.8,26.8,87.2,36.5,87.2,48.5z M130,48.5c0,12,9.6,21.5,21.5,21.5c8.7,0,14.9-3.9,14.9-3.9c0.2-0.2,0.5-0.5,0.5-1V49.7
				c0-0.6-0.5-1.1-1.1-1.1h-11.5c-0.7,0-1.1,0.5-1.1,1.1v4.7c0,0.6,0.5,1.1,1.1,1.1h4.8v5.1c-1.2,0.5-3.8,1.5-7.1,1.5
				c-7.6,0-13.5-6.3-13.5-13.7c0-7.5,5.9-13.9,13.4-13.9c3.3,0,6.5,1.2,9.1,3.5c0.5,0.5,1.1,0.5,1.6,0l3.7-3.9
				c0.5-0.5,0.4-1.2-0.1-1.7c-4.1-3.5-9.2-5.6-14.6-5.6C139.6,26.8,130,36.5,130,48.5z M175.7,68.3c0,0.6,0.5,1.1,1.1,1.1h5.6
				c0.6,0,1.1-0.5,1.1-1.1V28.5c0-0.6-0.5-1.1-1.1-1.1h-5.6c-0.6,0-1.1,0.5-1.1,1.1V68.3z M194.5,68.3c0,0.6,0.5,1.1,1.1,1.1H220
				c0.7,0,1.1-0.5,1.1-1.1v-4.9c0-0.6-0.5-1.1-1.1-1.1h-17.7V51.7h14.8c0.6,0,1.1-0.5,1.1-1.1v-5c0-0.6-0.5-1.1-1.1-1.1h-14.8v-9.8
				h17.8c0.7,0,1.1-0.5,1.1-1.1v-4.9c0-0.6-0.5-1.1-1.1-1.1h-24.4c-0.7,0-1.1,0.5-1.1,1.1v39.6H194.5z M240,48.5
				c0,12,9.5,21.5,21.5,21.5c0.7,0,1.7-0.1,2.7-0.2l6.4,10.9c0.2,0.4,0.7,0.6,1,0.6h6.4c1,0,1.5-1,1-1.8l-7.5-11.8
				c7-3.8,11.7-11,11.7-19.2c0-12-9.6-21.7-21.6-21.7C249.5,26.8,240,36.5,240,48.5z M247.8,48.5c0-7.6,6.2-13.9,13.7-13.9
				c7.5,0,13.8,6.3,13.8,13.9s-6.2,13.7-13.8,13.7C253.9,62.2,247.8,56,247.8,48.5z M290.4,53.5c0,9.1,7.3,16.5,16.7,16.5
				c9.5,0,16.7-7.4,16.7-16.5v-25c0-0.6-0.5-1.1-1.1-1.1H317c-0.7,0-1.1,0.5-1.1,1.1v24.6c0,5-3.5,9.1-8.8,9.1c-5.2,0-8.7-4-8.7-9.1
				V28.5c0-0.6-0.5-1.1-1.1-1.1h-5.7c-0.6,0-1.1,0.5-1.1,1.1L290.4,53.5L290.4,53.5z"/>
			<path class="st1" d="M0,68c-0.1,0.9,0.4,1.4,1.1,1.4h5.4c0.5,0,1-0.5,1.1-0.9l3.5-22.7c0.1,0,0.2,0,0.2,0l10.6,23.6
				c0.2,0.4,0.5,0.7,1,0.7H24c0.5,0,0.9-0.3,1-0.7l10.5-23.6c0,0,0.1,0,0.2,0l3.5,22.7c0.1,0.4,0.6,0.9,1.1,0.9h5.5
				c0.8,0,1.3-0.5,1.1-1.4l-7.1-40.3c-0.1-0.5-0.4-0.9-1.1-0.9h-1c-0.5,0-0.8,0.2-1,0.6L23.6,55.7c-0.1,0-0.1,0-0.2,0L10.2,27.4
				c-0.2-0.4-0.5-0.6-1-0.6h-1c-0.7,0-1,0.4-1.1,0.9L0,68z"/>
			<path class="st1" d="M55.1,68.3c0,0.6,0.5,1.1,1.1,1.1h24.4c0.7,0,1.1-0.5,1.1-1.1v-4.9c0-0.6-0.5-1.1-1.1-1.1H62.9V51.7h14.8
				c0.6,0,1.1-0.5,1.1-1.1v-5c0-0.6-0.5-1.1-1.1-1.1H62.9v-9.8h17.8c0.7,0,1.1-0.5,1.1-1.1v-4.9c0-0.6-0.5-1.1-1.1-1.1H56.3
				c-0.7,0-1.1,0.5-1.1,1.1v39.6H55.1z"/>
			<path class="st1" d="M87.2,48.5c0,12,9.6,21.5,21.5,21.5c8.7,0,14.9-3.9,14.9-3.9c0.2-0.2,0.5-0.5,0.5-1V49.7
				c0-0.6-0.5-1.1-1.1-1.1h-11.5c-0.7,0-1.1,0.5-1.1,1.1v4.7c0,0.6,0.5,1.1,1.1,1.1h4.8v5.1c-1.2,0.5-3.8,1.5-7.1,1.5
				c-7.6,0-13.5-6.3-13.5-13.7c0-7.5,5.9-13.9,13.4-13.9c3.3,0,6.5,1.2,9.1,3.5c0.5,0.5,1.1,0.5,1.6,0l3.7-3.9
				c0.5-0.5,0.4-1.2-0.1-1.7c-4.1-3.5-9.2-5.6-14.6-5.6C96.8,26.8,87.2,36.5,87.2,48.5z"/>
			<path class="st1" d="M130,48.5c0,12,9.6,21.5,21.5,21.5c8.7,0,14.9-3.9,14.9-3.9c0.2-0.2,0.5-0.5,0.5-1V49.7
				c0-0.6-0.5-1.1-1.1-1.1h-11.5c-0.7,0-1.1,0.5-1.1,1.1v4.7c0,0.6,0.5,1.1,1.1,1.1h4.8v5.1c-1.2,0.5-3.8,1.5-7.1,1.5
				c-7.6,0-13.5-6.3-13.5-13.7c0-7.5,5.9-13.9,13.4-13.9c3.3,0,6.5,1.2,9.1,3.5c0.5,0.5,1.1,0.5,1.6,0l3.7-3.9
				c0.5-0.5,0.4-1.2-0.1-1.7c-4.1-3.5-9.2-5.6-14.6-5.6C139.6,26.8,130,36.5,130,48.5z"/>
			<path class="st1" d="M175.7,68.3c0,0.6,0.5,1.1,1.1,1.1h5.6c0.6,0,1.1-0.5,1.1-1.1V28.5c0-0.6-0.5-1.1-1.1-1.1h-5.6
				c-0.6,0-1.1,0.5-1.1,1.1V68.3z"/>
			<path class="st1" d="M194.5,68.3c0,0.6,0.5,1.1,1.1,1.1H220c0.7,0,1.1-0.5,1.1-1.1v-4.9c0-0.6-0.5-1.1-1.1-1.1h-17.7V51.7h14.8
				c0.6,0,1.1-0.5,1.1-1.1v-5c0-0.6-0.5-1.1-1.1-1.1h-14.8v-9.8h17.8c0.7,0,1.1-0.5,1.1-1.1v-4.9c0-0.6-0.5-1.1-1.1-1.1h-24.4
				c-0.7,0-1.1,0.5-1.1,1.1v39.6H194.5z"/>
			<path class="st1" d="M240,48.5c0,12,9.5,21.5,21.5,21.5c0.7,0,1.7-0.1,2.7-0.2l6.4,10.9c0.2,0.4,0.7,0.6,1,0.6h6.4
				c1,0,1.5-1,1-1.8l-7.5-11.8c7-3.8,11.7-11,11.7-19.2c0-12-9.6-21.7-21.6-21.7C249.5,26.8,240,36.5,240,48.5z M247.8,48.5
				c0-7.6,6.2-13.9,13.7-13.9c7.5,0,13.8,6.3,13.8,13.9s-6.2,13.7-13.8,13.7C253.9,62.2,247.8,56,247.8,48.5z"/>
			<path class="st1" d="M290.4,53.5c0,9.1,7.3,16.5,16.7,16.5c9.5,0,16.7-7.4,16.7-16.5v-25c0-0.6-0.5-1.1-1.1-1.1H317
				c-0.7,0-1.1,0.5-1.1,1.1v24.6c0,5-3.5,9.1-8.8,9.1c-5.2,0-8.7-4-8.7-9.1V28.5c0-0.6-0.5-1.1-1.1-1.1h-5.7c-0.6,0-1.1,0.5-1.1,1.1
				L290.4,53.5L290.4,53.5z"/>
		</g>
	</g>
	<g id="Layer_2_2_">
		<g id="Layer_1_4_">
			<path class="st2" d="M2.1,63c-0.1,0.9,0.4,1.4,1.1,1.4h5.4c0.5,0,1-0.5,1.1-0.9l3.5-22.7c0.1,0,0.2,0,0.2,0L24,64.4
				c0.2,0.4,0.5,0.7,1,0.7h1.1c0.5,0,0.9-0.3,1-0.7l10.5-23.6c0,0,0.1,0,0.2,0l3.5,22.7c0.1,0.4,0.6,0.9,1.1,0.9h5.5
				c0.8,0,1.3-0.5,1.1-1.4l-7.1-40.3c-0.1-0.5-0.4-0.9-1.1-0.9h-1c-0.5,0-0.8,0.2-1,0.6L25.7,50.7c-0.1,0-0.1,0-0.2,0L12.3,22.4
				c-0.2-0.4-0.5-0.6-1-0.6h-1c-0.7,0-1,0.4-1.1,0.9L2.1,63z M57.2,63.3c0,0.6,0.5,1.1,1.1,1.1h24.4c0.7,0,1.1-0.5,1.1-1.1v-4.9
				c0-0.6-0.5-1.1-1.1-1.1H65V46.7h14.8c0.6,0,1.1-0.5,1.1-1.1v-5c0-0.6-0.5-1.1-1.1-1.1H65v-9.8h17.8c0.7,0,1.1-0.5,1.1-1.1v-4.9
				c0-0.6-0.5-1.1-1.1-1.1H58.4c-0.7,0-1.1,0.5-1.1,1.1v39.6H57.2z M89.3,43.5c0,12,9.6,21.5,21.5,21.5c8.7,0,14.9-3.9,14.9-3.9
				c0.2-0.2,0.5-0.5,0.5-1V44.7c0-0.6-0.5-1.1-1.1-1.1h-11.5c-0.7,0-1.1,0.5-1.1,1.1v4.7c0,0.6,0.5,1.1,1.1,1.1h4.8v5.1
				c-1.2,0.5-3.8,1.5-7.1,1.5c-7.6,0-13.5-6.3-13.5-13.7c0-7.5,5.9-13.9,13.4-13.9c3.3,0,6.5,1.2,9.1,3.5c0.5,0.5,1.1,0.5,1.6,0
				l3.7-3.9c0.5-0.5,0.4-1.2-0.1-1.7c-4.1-3.5-9.2-5.6-14.6-5.6C98.9,21.8,89.3,31.5,89.3,43.5z M132.1,43.5
				c0,12,9.6,21.5,21.5,21.5c8.7,0,14.9-3.9,14.9-3.9c0.2-0.2,0.5-0.5,0.5-1V44.7c0-0.6-0.5-1.1-1.1-1.1h-11.5
				c-0.7,0-1.1,0.5-1.1,1.1v4.7c0,0.6,0.5,1.1,1.1,1.1h4.8v5.1c-1.2,0.5-3.8,1.5-7.1,1.5c-7.6,0-13.5-6.3-13.5-13.7
				c0-7.5,5.9-13.9,13.4-13.9c3.3,0,6.5,1.2,9.1,3.5c0.5,0.5,1.1,0.5,1.6,0l3.7-3.9c0.5-0.5,0.4-1.2-0.1-1.7
				c-4.1-3.5-9.2-5.6-14.6-5.6C141.7,21.8,132.1,31.5,132.1,43.5z M177.8,63.3c0,0.6,0.5,1.1,1.1,1.1h5.6c0.6,0,1.1-0.5,1.1-1.1
				V23.5c0-0.6-0.5-1.1-1.1-1.1h-5.6c-0.6,0-1.1,0.5-1.1,1.1V63.3z M196.6,63.3c0,0.6,0.5,1.1,1.1,1.1h24.4c0.7,0,1.1-0.5,1.1-1.1
				v-4.9c0-0.6-0.5-1.1-1.1-1.1h-17.7V46.7h14.8c0.6,0,1.1-0.5,1.1-1.1v-5c0-0.6-0.5-1.1-1.1-1.1h-14.8v-9.8h17.8
				c0.7,0,1.1-0.5,1.1-1.1v-4.9c0-0.6-0.5-1.1-1.1-1.1h-24.4c-0.7,0-1.1,0.5-1.1,1.1v39.6H196.6z M242.1,43.5
				c0,12,9.5,21.5,21.5,21.5c0.7,0,1.7-0.1,2.7-0.2l6.4,10.9c0.2,0.4,0.7,0.6,1,0.6h6.4c1,0,1.5-1,1-1.8l-7.5-11.8
				c7-3.8,11.7-11,11.7-19.2c0-12-9.6-21.7-21.6-21.7C251.6,21.8,242.1,31.5,242.1,43.5z M249.9,43.5c0-7.6,6.2-13.9,13.7-13.9
				s13.8,6.3,13.8,13.9s-6.2,13.7-13.8,13.7C256,57.2,249.9,51,249.9,43.5z M292.5,48.5c0,9.1,7.3,16.5,16.7,16.5
				c9.5,0,16.7-7.4,16.7-16.5v-25c0-0.6-0.5-1.1-1.1-1.1h-5.7c-0.7,0-1.1,0.5-1.1,1.1v24.6c0,5-3.5,9.1-8.8,9.1
				c-5.2,0-8.7-4-8.7-9.1V23.5c0-0.6-0.5-1.1-1.1-1.1h-5.7c-0.6,0-1.1,0.5-1.1,1.1L292.5,48.5L292.5,48.5z"/>
			<path class="st3" d="M2.1,63c-0.1,0.9,0.4,1.4,1.1,1.4h5.4c0.5,0,1-0.5,1.1-0.9l3.5-22.7c0.1,0,0.2,0,0.2,0L24,64.4
				c0.2,0.4,0.5,0.7,1,0.7h1.1c0.5,0,0.9-0.3,1-0.7l10.5-23.6c0,0,0.1,0,0.2,0l3.5,22.7c0.1,0.4,0.6,0.9,1.1,0.9h5.5
				c0.8,0,1.3-0.5,1.1-1.4l-7.1-40.3c-0.1-0.5-0.4-0.9-1.1-0.9h-1c-0.5,0-0.8,0.2-1,0.6L25.7,50.7c-0.1,0-0.1,0-0.2,0L12.3,22.4
				c-0.2-0.4-0.5-0.6-1-0.6h-1c-0.7,0-1,0.4-1.1,0.9L2.1,63z"/>
			<path class="st3" d="M57.2,63.3c0,0.6,0.5,1.1,1.1,1.1h24.4c0.7,0,1.1-0.5,1.1-1.1v-4.9c0-0.6-0.5-1.1-1.1-1.1H65V46.7h14.8
				c0.6,0,1.1-0.5,1.1-1.1v-5c0-0.6-0.5-1.1-1.1-1.1H65v-9.8h17.8c0.7,0,1.1-0.5,1.1-1.1v-4.9c0-0.6-0.5-1.1-1.1-1.1H58.4
				c-0.7,0-1.1,0.5-1.1,1.1v39.6H57.2z"/>
			<path class="st3" d="M89.3,43.5c0,12,9.6,21.5,21.5,21.5c8.7,0,14.9-3.9,14.9-3.9c0.2-0.2,0.5-0.5,0.5-1V44.7
				c0-0.6-0.5-1.1-1.1-1.1h-11.5c-0.7,0-1.1,0.5-1.1,1.1v4.7c0,0.6,0.5,1.1,1.1,1.1h4.8v5.1c-1.2,0.5-3.8,1.5-7.1,1.5
				c-7.6,0-13.5-6.3-13.5-13.7c0-7.5,5.9-13.9,13.4-13.9c3.3,0,6.5,1.2,9.1,3.5c0.5,0.5,1.1,0.5,1.6,0l3.7-3.9
				c0.5-0.5,0.4-1.2-0.1-1.7c-4.1-3.5-9.2-5.6-14.6-5.6C98.9,21.8,89.3,31.5,89.3,43.5z"/>
			<path class="st3" d="M132.1,43.5c0,12,9.6,21.5,21.5,21.5c8.7,0,14.9-3.9,14.9-3.9c0.2-0.2,0.5-0.5,0.5-1V44.7
				c0-0.6-0.5-1.1-1.1-1.1h-11.5c-0.7,0-1.1,0.5-1.1,1.1v4.7c0,0.6,0.5,1.1,1.1,1.1h4.8v5.1c-1.2,0.5-3.8,1.5-7.1,1.5
				c-7.6,0-13.5-6.3-13.5-13.7c0-7.5,5.9-13.9,13.4-13.9c3.3,0,6.5,1.2,9.1,3.5c0.5,0.5,1.1,0.5,1.6,0l3.7-3.9
				c0.5-0.5,0.4-1.2-0.1-1.7c-4.1-3.5-9.2-5.6-14.6-5.6C141.7,21.8,132.1,31.5,132.1,43.5z"/>
			<path class="st3" d="M177.8,63.3c0,0.6,0.5,1.1,1.1,1.1h5.6c0.6,0,1.1-0.5,1.1-1.1V23.5c0-0.6-0.5-1.1-1.1-1.1h-5.6
				c-0.6,0-1.1,0.5-1.1,1.1V63.3z"/>
			<path class="st3" d="M196.6,63.3c0,0.6,0.5,1.1,1.1,1.1h24.4c0.7,0,1.1-0.5,1.1-1.1v-4.9c0-0.6-0.5-1.1-1.1-1.1h-17.7V46.7h14.8
				c0.6,0,1.1-0.5,1.1-1.1v-5c0-0.6-0.5-1.1-1.1-1.1h-14.8v-9.8h17.8c0.7,0,1.1-0.5,1.1-1.1v-4.9c0-0.6-0.5-1.1-1.1-1.1h-24.4
				c-0.7,0-1.1,0.5-1.1,1.1v39.6H196.6z"/>
			<path class="st3" d="M242.1,43.5c0,12,9.5,21.5,21.5,21.5c0.7,0,1.7-0.1,2.7-0.2l6.4,10.9c0.2,0.4,0.7,0.6,1,0.6h6.4
				c1,0,1.5-1,1-1.8l-7.5-11.8c7-3.8,11.7-11,11.7-19.2c0-12-9.6-21.7-21.6-21.7C251.6,21.8,242.1,31.5,242.1,43.5z M249.9,43.5
				c0-7.6,6.2-13.9,13.7-13.9s13.8,6.3,13.8,13.9s-6.2,13.7-13.8,13.7C256,57.2,249.9,51,249.9,43.5z"/>
			<path class="st3" d="M292.5,48.5c0,9.1,7.3,16.5,16.7,16.5c9.5,0,16.7-7.4,16.7-16.5v-25c0-0.6-0.5-1.1-1.1-1.1h-5.7
				c-0.7,0-1.1,0.5-1.1,1.1v24.6c0,5-3.5,9.1-8.8,9.1c-5.2,0-8.7-4-8.7-9.1V23.5c0-0.6-0.5-1.1-1.1-1.1h-5.7c-0.6,0-1.1,0.5-1.1,1.1
				L292.5,48.5L292.5,48.5z"/>
		</g>
	</g>
</g>
<g id="Layer_2" class="st4">
	<g id="Layer_1_3_" class="st5">
		<g id="Layer_1_2_">
			<path class="st6" d="M59.2,58.7c0,0.6,0.5,1.1,1.1,1.1h24.4c0.7,0,1.1-0.5,1.1-1.1v-4.9c0-0.6-0.5-1.1-1.1-1.1H67V42.1h14.8
				c0.6,0,1.1-0.5,1.1-1.1v-5c0-0.6-0.5-1.1-1.1-1.1H67v-9.8h17.8c0.7,0,1.1-0.5,1.1-1.1v-4.9c0-0.6-0.5-1.1-1.1-1.1H60.4
				c-0.7,0-1.1,0.5-1.1,1.1v39.6H59.2z M91.3,38.9c0,12,9.6,21.5,21.5,21.5c8.7,0,14.9-3.9,14.9-3.9c0.2-0.2,0.5-0.5,0.5-1V40.1
				c0-0.6-0.5-1.1-1.1-1.1h-11.5c-0.7,0-1.1,0.5-1.1,1.1v4.7c0,0.6,0.5,1.1,1.1,1.1h4.8V51c-1.2,0.5-3.8,1.5-7.1,1.5
				c-7.6,0-13.5-6.3-13.5-13.7c0-7.5,5.9-13.9,13.4-13.9c3.3,0,6.5,1.2,9.1,3.5c0.5,0.5,1.1,0.5,1.6,0l3.7-3.9
				c0.5-0.5,0.4-1.2-0.1-1.7c-4.1-3.5-9.2-5.6-14.6-5.6C100.9,17.2,91.3,26.9,91.3,38.9z M134.1,38.9c0,12,9.6,21.5,21.5,21.5
				c8.7,0,14.9-3.9,14.9-3.9c0.2-0.2,0.5-0.5,0.5-1V40.1c0-0.6-0.5-1.1-1.1-1.1h-11.5c-0.7,0-1.1,0.5-1.1,1.1v4.7
				c0,0.6,0.5,1.1,1.1,1.1h4.8V51c-1.2,0.5-3.8,1.5-7.1,1.5c-7.6,0-13.5-6.3-13.5-13.7c0-7.5,5.9-13.9,13.4-13.9
				c3.3,0,6.5,1.2,9.1,3.5c0.5,0.5,1.1,0.5,1.6,0l3.7-3.9c0.5-0.5,0.4-1.2-0.1-1.7c-4.1-3.5-9.2-5.6-14.6-5.6
				C143.7,17.2,134.1,26.9,134.1,38.9z M179.8,58.7c0,0.6,0.5,1.1,1.1,1.1h5.6c0.6,0,1.1-0.5,1.1-1.1V18.9c0-0.6-0.5-1.1-1.1-1.1
				h-5.6c-0.6,0-1.1,0.5-1.1,1.1V58.7z M198.6,58.7c0,0.6,0.5,1.1,1.1,1.1h24.4c0.7,0,1.1-0.5,1.1-1.1v-4.9c0-0.6-0.5-1.1-1.1-1.1
				h-17.7V42.1h14.8c0.6,0,1.1-0.5,1.1-1.1v-5c0-0.6-0.5-1.1-1.1-1.1h-14.8v-9.8h17.8c0.7,0,1.1-0.5,1.1-1.1v-4.9
				c0-0.6-0.5-1.1-1.1-1.1h-24.4c-0.7,0-1.1,0.5-1.1,1.1v39.6H198.6z M244.1,38.9c0,12,9.5,21.5,21.5,21.5c0.7,0,1.7-0.1,2.7-0.2
				l6.4,10.9c0.2,0.4,0.7,0.6,1,0.6h6.4c1,0,1.5-1,1-1.8l-7.5-11.8c7-3.8,11.7-11,11.7-19.2c0-12-9.6-21.7-21.6-21.7
				C253.6,17.2,244.1,26.9,244.1,38.9z M251.9,38.9c0-7.6,6.2-13.9,13.7-13.9s13.8,6.3,13.8,13.9s-6.2,13.7-13.8,13.7
				S251.9,46.4,251.9,38.9z M294.5,43.9c0,9.1,7.3,16.5,16.7,16.5c9.5,0,16.7-7.4,16.7-16.5v-25c0-0.6-0.5-1.1-1.1-1.1h-5.7
				c-0.7,0-1.1,0.5-1.1,1.1v24.6c0,5-3.5,9.1-8.8,9.1c-5.2,0-8.7-4-8.7-9.1V18.9c0-0.6-0.5-1.1-1.1-1.1h-5.7c-0.6,0-1.1,0.5-1.1,1.1
				L294.5,43.9L294.5,43.9z"/>
			<path class="st7" d="M14.8,38.9l0.4-2.7c0.1,0,0.2,0,0.2,0l1.2,2.7h21.8l1.2-2.7c0,0,0.1,0,0.2,0l0.4,2.7h7.3l-3.7-20.8
				c-0.1-0.5-0.4-0.9-1.1-0.9h-1c-0.5,0-0.8,0.2-1,0.6L31,38.9h-6.9l-9.8-21.1c-0.2-0.4-0.5-0.6-1-0.6h-1c-0.7,0-1,0.4-1.1,0.9
				L7.5,38.9"/>
			<path class="st7" d="M82.9,38.9V36c0-0.6-0.5-1.1-1.1-1.1H67v-9.8h17.8c0.7,0,1.1-0.5,1.1-1.1v-4.9c0-0.6-0.5-1.1-1.1-1.1H60.4
				c-0.7,0-1.1,0.5-1.1,1.1v19.8H82.9z"/>
			<path class="st7" d="M91.3,38.9l8.5-0.1c0-7.5,5.9-13.9,13.4-13.9c3.3,0,6.5,1.2,9.1,3.5c0.5,0.5,1.1,0.5,1.6,0l3.7-3.9
				c0.5-0.5,0.4-1.2-0.1-1.7c-4.1-3.5-9.2-5.6-14.6-5.6C100.9,17.2,91.3,26.9,91.3,38.9z"/>
			<path class="st7" d="M134.1,38.9l8.5-0.1c0-7.5,5.9-13.9,13.4-13.9c3.3,0,6.5,1.2,9.1,3.5c0.5,0.5,1.1,0.5,1.6,0l3.7-3.9
				c0.5-0.5,0.4-1.2-0.1-1.7c-4.1-3.5-9.2-5.6-14.6-5.6C143.7,17.2,134.1,26.9,134.1,38.9z"/>
			<path class="st7" d="M187.6,38.8V18.9c0-0.6-0.5-1.1-1.1-1.1h-5.6c-0.6,0-1.1,0.5-1.1,1.1v19.9H187.6z"/>
			<path class="st7" d="M222.3,38.8V36c0-0.6-0.5-1.1-1.1-1.1h-14.8v-9.8h17.8c0.7,0,1.1-0.5,1.1-1.1v-4.9c0-0.6-0.5-1.1-1.1-1.1
				h-24.4c-0.7,0-1.1,0.5-1.1,1.1v19.7L222.3,38.8z"/>
			<path class="st7" d="M244.1,38.9h43.2c0-12-9.6-21.7-21.6-21.7C253.6,17.2,244.1,26.9,244.1,38.9z M251.9,38.9
				c0-7.6,6.2-13.9,13.7-13.9s13.8,6.3,13.8,13.9H251.9z"/>
			<path class="st7" d="M327.9,38.9v-20c0-0.6-0.5-1.1-1.1-1.1h-5.7c-0.7,0-1.1,0.5-1.1,1.1v20h-17.5v-20c0-0.6-0.5-1.1-1.1-1.1
				h-5.7c-0.6,0-1.1,0.5-1.1,1.1v20H327.9z"/>
		</g>
		<path class="st8" d="M251.9,38.9"/>
	</g>
</g>
</svg>
