<?xml version="1.0" encoding="utf-8"?>
<!-- Generator: Adobe Illustrator 25.1.0, SVG Export Plug-In . SVG Version: 6.00 Build 0)  -->
<svg version="1.1" xmlns="http://www.w3.org/2000/svg" xmlns:xlink="http://www.w3.org/1999/xlink" x="0px" y="0px"
	 viewBox="0 0 332 86" style="enable-background:new 0 0 332 86;" xml:space="preserve">
<style type="text/css">
	.st0{fill:#FF1493;}
	.st1{display:none;fill:#FFFFFF;}
	.st2{fill:#FFFFFF;}
	.st3{display:none;}
	.st4{display:inline;}
	.st5{display:none;fill:#969696;}
	.st6{fill:#969696;}
	.st7{fill:#333333;}
</style>
<g id="Layer_1">
	<rect class="st0" width="332" height="86"/>
	<g id="Layer_2_2_">
		<g id="Layer_1_4_">
			<path class="st1" d="M15.6,59.6c-0.1,0.8,0.4,1.3,1,1.3h4.9c0.5,0,0.9-0.5,1-0.8l3.2-20.8c0.1,0,0.2,0,0.2,0l9.7,21.6
				c0.2,0.4,0.5,0.6,0.9,0.6h1c0.5,0,0.8-0.3,0.9-0.6l9.6-21.6c0,0,0.1,0,0.2,0L51.5,60c0.1,0.4,0.5,0.8,1,0.8h5
				c0.7,0,1.2-0.5,1-1.3l-6.5-36.9c-0.1-0.5-0.4-0.8-1-0.8h-0.9c-0.5,0-0.7,0.2-0.9,0.5l-12,25.9c-0.1,0-0.1,0-0.2,0L24.9,22.4
				c-0.2-0.4-0.5-0.5-0.9-0.5h-0.9c-0.6,0-0.9,0.4-1,0.8L15.6,59.6z M66.1,59.9c0,0.5,0.5,1,1,1h22.4c0.6,0,1-0.5,1-1v-4.5
				c0-0.5-0.5-1-1-1H73.2v-9.7h13.6c0.5,0,1-0.5,1-1V39c0-0.5-0.5-1-1-1H73.2v-9h16.3c0.6,0,1-0.5,1-1v-4.5c0-0.5-0.5-1-1-1H67.2
				c-0.6,0-1,0.5-1,1L66.1,59.9L66.1,59.9z M95.5,41.7c0,11,8.8,19.7,19.7,19.7c8,0,13.7-3.6,13.7-3.6c0.2-0.2,0.5-0.5,0.5-0.9V42.8
				c0-0.5-0.5-1-1-1h-10.5c-0.6,0-1,0.5-1,1v4.3c0,0.5,0.5,1,1,1h4.4v4.7c-1.1,0.5-3.5,1.4-6.5,1.4c-7,0-12.4-5.8-12.4-12.6
				c0-6.9,5.4-12.7,12.3-12.7c3,0,6,1.1,8.3,3.2c0.5,0.5,1,0.5,1.5,0l3.4-3.6c0.5-0.5,0.4-1.1-0.1-1.6c-3.8-3.2-8.4-5.1-13.4-5.1
				C104.3,21.8,95.5,30.7,95.5,41.7z M134.7,41.7c0,11,8.8,19.7,19.7,19.7c8,0,13.7-3.6,13.7-3.6c0.2-0.2,0.5-0.5,0.5-0.9V42.8
				c0-0.5-0.5-1-1-1H157c-0.6,0-1,0.5-1,1v4.3c0,0.5,0.5,1,1,1h4.4v4.7c-1.1,0.5-3.5,1.4-6.5,1.4c-7,0-12.4-5.8-12.4-12.6
				c0-6.9,5.4-12.7,12.3-12.7c3,0,6,1.1,8.3,3.2c0.5,0.5,1,0.5,1.5,0l3.4-3.6c0.5-0.5,0.4-1.1-0.1-1.6c-3.8-3.2-8.4-5.1-13.4-5.1
				C143.5,21.8,134.7,30.7,134.7,41.7z M176.6,59.9c0,0.5,0.5,1,1,1h5.1c0.6,0,1-0.5,1-1V23.4c0-0.5-0.5-1-1-1h-5.1
				c-0.6,0-1,0.5-1,1V59.9z M193.9,59.9c0,0.5,0.5,1,1,1h22.4c0.6,0,1-0.5,1-1v-4.5c0-0.5-0.5-1-1-1H201v-9.7h13.6c0.5,0,1-0.5,1-1
				V39c0-0.5-0.5-1-1-1H201v-9h16.3c0.6,0,1-0.5,1-1v-4.5c0-0.5-0.5-1-1-1H195c-0.6,0-1,0.5-1,1L193.9,59.9L193.9,59.9z M235.6,41.7
				c0,11,8.7,19.7,19.7,19.7c0.6,0,1.6-0.1,2.5-0.2l5.9,10c0.2,0.4,0.6,0.5,0.9,0.5h5.9c0.9,0,1.4-0.9,0.9-1.6l-6.9-10.8
				c6.4-3.5,10.7-10.1,10.7-17.6c0-11-8.8-19.9-19.8-19.9C244.3,21.8,235.6,30.7,235.6,41.7z M242.7,41.7c0-7,5.7-12.7,12.6-12.7
				c6.9,0,12.6,5.8,12.6,12.7s-5.7,12.6-12.6,12.6C248.3,54.3,242.7,48.6,242.7,41.7z M281.8,46.3c0,8.3,6.7,15.1,15.3,15.1
				c8.7,0,15.3-6.8,15.3-15.1V23.4c0-0.5-0.5-1-1-1h-5.2c-0.6,0-1,0.5-1,1v22.5c0,4.6-3.2,8.3-8.1,8.3c-4.8,0-8-3.7-8-8.3V23.4
				c0-0.5-0.5-1-1-1h-5.2c-0.5,0-1,0.5-1,1L281.8,46.3L281.8,46.3z"/>
			<path class="st2" d="M15.6,59.6c-0.1,0.8,0.4,1.3,1,1.3h4.9c0.5,0,0.9-0.5,1-0.8l3.2-20.8c0.1,0,0.2,0,0.2,0l9.7,21.6
				c0.2,0.4,0.5,0.6,0.9,0.6h1c0.5,0,0.8-0.3,0.9-0.6l9.6-21.6c0,0,0.1,0,0.2,0L51.5,60c0.1,0.4,0.5,0.8,1,0.8h5
				c0.7,0,1.2-0.5,1-1.3l-6.5-36.9c-0.1-0.5-0.4-0.8-1-0.8h-0.9c-0.5,0-0.7,0.2-0.9,0.5l-12,25.9c-0.1,0-0.1,0-0.2,0L24.9,22.4
				c-0.2-0.4-0.5-0.5-0.9-0.5h-0.9c-0.6,0-0.9,0.4-1,0.8L15.6,59.6z"/>
			<path class="st2" d="M66.1,59.9c0,0.5,0.5,1,1,1h22.4c0.6,0,1-0.5,1-1v-4.5c0-0.5-0.5-1-1-1H73.2v-9.7h13.6c0.5,0,1-0.5,1-1V39
				c0-0.5-0.5-1-1-1H73.2v-9h16.3c0.6,0,1-0.5,1-1v-4.5c0-0.5-0.5-1-1-1H67.2c-0.6,0-1,0.5-1,1L66.1,59.9L66.1,59.9z"/>
			<path class="st2" d="M95.5,41.7c0,11,8.8,19.7,19.7,19.7c8,0,13.7-3.6,13.7-3.6c0.2-0.2,0.5-0.5,0.5-0.9V42.8c0-0.5-0.5-1-1-1
				h-10.5c-0.6,0-1,0.5-1,1v4.3c0,0.5,0.5,1,1,1h4.4v4.7c-1.1,0.5-3.5,1.4-6.5,1.4c-7,0-12.4-5.8-12.4-12.6
				c0-6.9,5.4-12.7,12.3-12.7c3,0,6,1.1,8.3,3.2c0.5,0.5,1,0.5,1.5,0l3.4-3.6c0.5-0.5,0.4-1.1-0.1-1.6c-3.8-3.2-8.4-5.1-13.4-5.1
				C104.3,21.8,95.5,30.7,95.5,41.7z"/>
			<path class="st2" d="M134.7,41.7c0,11,8.8,19.7,19.7,19.7c8,0,13.7-3.6,13.7-3.6c0.2-0.2,0.5-0.5,0.5-0.9V42.8c0-0.5-0.5-1-1-1
				H157c-0.6,0-1,0.5-1,1v4.3c0,0.5,0.5,1,1,1h4.4v4.7c-1.1,0.5-3.5,1.4-6.5,1.4c-7,0-12.4-5.8-12.4-12.6c0-6.9,5.4-12.7,12.3-12.7
				c3,0,6,1.1,8.3,3.2c0.5,0.5,1,0.5,1.5,0l3.4-3.6c0.5-0.5,0.4-1.1-0.1-1.6c-3.8-3.2-8.4-5.1-13.4-5.1
				C143.5,21.8,134.7,30.7,134.7,41.7z"/>
			<path class="st2" d="M176.6,59.9c0,0.5,0.5,1,1,1h5.1c0.6,0,1-0.5,1-1V23.4c0-0.5-0.5-1-1-1h-5.1c-0.6,0-1,0.5-1,1V59.9z"/>
			<path class="st2" d="M193.9,59.9c0,0.5,0.5,1,1,1h22.4c0.6,0,1-0.5,1-1v-4.5c0-0.5-0.5-1-1-1H201v-9.7h13.6c0.5,0,1-0.5,1-1V39
				c0-0.5-0.5-1-1-1H201v-9h16.3c0.6,0,1-0.5,1-1v-4.5c0-0.5-0.5-1-1-1H195c-0.6,0-1,0.5-1,1L193.9,59.9L193.9,59.9z"/>
			<path class="st2" d="M235.6,41.7c0,11,8.7,19.7,19.7,19.7c0.6,0,1.6-0.1,2.5-0.2l5.9,10c0.2,0.4,0.6,0.5,0.9,0.5h5.9
				c0.9,0,1.4-0.9,0.9-1.6l-6.9-10.8c6.4-3.5,10.7-10.1,10.7-17.6c0-11-8.8-19.9-19.8-19.9C244.3,21.8,235.6,30.7,235.6,41.7z
				 M242.7,41.7c0-7,5.7-12.7,12.6-12.7c6.9,0,12.6,5.8,12.6,12.7s-5.7,12.6-12.6,12.6C248.3,54.3,242.7,48.6,242.7,41.7z"/>
			<path class="st2" d="M281.8,46.3c0,8.3,6.7,15.1,15.3,15.1c8.7,0,15.3-6.8,15.3-15.1V23.4c0-0.5-0.5-1-1-1h-5.2c-0.6,0-1,0.5-1,1
				v22.5c0,4.6-3.2,8.3-8.1,8.3c-4.8,0-8-3.7-8-8.3V23.4c0-0.5-0.5-1-1-1h-5.2c-0.5,0-1,0.5-1,1L281.8,46.3L281.8,46.3z"/>
		</g>
	</g>
</g>
<g id="Layer_2" class="st3">
	<g id="Layer_1_3_" class="st4">
		<g id="Layer_1_2_">
			<path class="st5" d="M59.2,58.7c0,0.6,0.5,1.1,1.1,1.1h24.4c0.7,0,1.1-0.5,1.1-1.1v-4.9c0-0.6-0.5-1.1-1.1-1.1H67V42.1h14.8
				c0.6,0,1.1-0.5,1.1-1.1v-5c0-0.6-0.5-1.1-1.1-1.1H67v-9.8h17.8c0.7,0,1.1-0.5,1.1-1.1v-4.9c0-0.6-0.5-1.1-1.1-1.1H60.4
				c-0.7,0-1.1,0.5-1.1,1.1v39.6H59.2z M91.3,38.9c0,12,9.6,21.5,21.5,21.5c8.7,0,14.9-3.9,14.9-3.9c0.2-0.2,0.5-0.5,0.5-1V40.1
				c0-0.6-0.5-1.1-1.1-1.1h-11.5c-0.7,0-1.1,0.5-1.1,1.1v4.7c0,0.6,0.5,1.1,1.1,1.1h4.8V51c-1.2,0.5-3.8,1.5-7.1,1.5
				c-7.6,0-13.5-6.3-13.5-13.7c0-7.5,5.9-13.9,13.4-13.9c3.3,0,6.5,1.2,9.1,3.5c0.5,0.5,1.1,0.5,1.6,0l3.7-3.9
				c0.5-0.5,0.4-1.2-0.1-1.7c-4.1-3.5-9.2-5.6-14.6-5.6C100.9,17.2,91.3,26.9,91.3,38.9z M134.1,38.9c0,12,9.6,21.5,21.5,21.5
				c8.7,0,14.9-3.9,14.9-3.9c0.2-0.2,0.5-0.5,0.5-1V40.1c0-0.6-0.5-1.1-1.1-1.1h-11.5c-0.7,0-1.1,0.5-1.1,1.1v4.7
				c0,0.6,0.5,1.1,1.1,1.1h4.8V51c-1.2,0.5-3.8,1.5-7.1,1.5c-7.6,0-13.5-6.3-13.5-13.7c0-7.5,5.9-13.9,13.4-13.9
				c3.3,0,6.5,1.2,9.1,3.5c0.5,0.5,1.1,0.5,1.6,0l3.7-3.9c0.5-0.5,0.4-1.2-0.1-1.7c-4.1-3.5-9.2-5.6-14.6-5.6
				C143.7,17.2,134.1,26.9,134.1,38.9z M179.8,58.7c0,0.6,0.5,1.1,1.1,1.1h5.6c0.6,0,1.1-0.5,1.1-1.1V18.9c0-0.6-0.5-1.1-1.1-1.1
				h-5.6c-0.6,0-1.1,0.5-1.1,1.1V58.7z M198.6,58.7c0,0.6,0.5,1.1,1.1,1.1h24.4c0.7,0,1.1-0.5,1.1-1.1v-4.9c0-0.6-0.5-1.1-1.1-1.1
				h-17.7V42.1h14.8c0.6,0,1.1-0.5,1.1-1.1v-5c0-0.6-0.5-1.1-1.1-1.1h-14.8v-9.8h17.8c0.7,0,1.1-0.5,1.1-1.1v-4.9
				c0-0.6-0.5-1.1-1.1-1.1h-24.4c-0.7,0-1.1,0.5-1.1,1.1v39.6H198.6z M244.1,38.9c0,12,9.5,21.5,21.5,21.5c0.7,0,1.7-0.1,2.7-0.2
				l6.4,10.9c0.2,0.4,0.7,0.6,1,0.6h6.4c1,0,1.5-1,1-1.8l-7.5-11.8c7-3.8,11.7-11,11.7-19.2c0-12-9.6-21.7-21.6-21.7
				C253.6,17.2,244.1,26.9,244.1,38.9z M251.9,38.9c0-7.6,6.2-13.9,13.7-13.9s13.8,6.3,13.8,13.9s-6.2,13.7-13.8,13.7
				S251.9,46.4,251.9,38.9z M294.5,43.9c0,9.1,7.3,16.5,16.7,16.5c9.5,0,16.7-7.4,16.7-16.5v-25c0-0.6-0.5-1.1-1.1-1.1h-5.7
				c-0.7,0-1.1,0.5-1.1,1.1v24.6c0,5-3.5,9.1-8.8,9.1c-5.2,0-8.7-4-8.7-9.1V18.9c0-0.6-0.5-1.1-1.1-1.1h-5.7c-0.6,0-1.1,0.5-1.1,1.1
				L294.5,43.9L294.5,43.9z"/>
			<path class="st6" d="M14.8,38.9l0.4-2.7c0.1,0,0.2,0,0.2,0l1.2,2.7h21.8l1.2-2.7c0,0,0.1,0,0.2,0l0.4,2.7h7.3l-3.7-20.8
				c-0.1-0.5-0.4-0.9-1.1-0.9h-1c-0.5,0-0.8,0.2-1,0.6L31,38.9h-6.9l-9.8-21.1c-0.2-0.4-0.5-0.6-1-0.6h-1c-0.7,0-1,0.4-1.1,0.9
				L7.5,38.9"/>
			<path class="st6" d="M82.9,38.9V36c0-0.6-0.5-1.1-1.1-1.1H67v-9.8h17.8c0.7,0,1.1-0.5,1.1-1.1v-4.9c0-0.6-0.5-1.1-1.1-1.1H60.4
				c-0.7,0-1.1,0.5-1.1,1.1v19.8H82.9z"/>
			<path class="st6" d="M91.3,38.9l8.5-0.1c0-7.5,5.9-13.9,13.4-13.9c3.3,0,6.5,1.2,9.1,3.5c0.5,0.5,1.1,0.5,1.6,0l3.7-3.9
				c0.5-0.5,0.4-1.2-0.1-1.7c-4.1-3.5-9.2-5.6-14.6-5.6C100.9,17.2,91.3,26.9,91.3,38.9z"/>
			<path class="st6" d="M134.1,38.9l8.5-0.1c0-7.5,5.9-13.9,13.4-13.9c3.3,0,6.5,1.2,9.1,3.5c0.5,0.5,1.1,0.5,1.6,0l3.7-3.9
				c0.5-0.5,0.4-1.2-0.1-1.7c-4.1-3.5-9.2-5.6-14.6-5.6C143.7,17.2,134.1,26.9,134.1,38.9z"/>
			<path class="st6" d="M187.6,38.8V18.9c0-0.6-0.5-1.1-1.1-1.1h-5.6c-0.6,0-1.1,0.5-1.1,1.1v19.9H187.6z"/>
			<path class="st6" d="M222.3,38.8V36c0-0.6-0.5-1.1-1.1-1.1h-14.8v-9.8h17.8c0.7,0,1.1-0.5,1.1-1.1v-4.9c0-0.6-0.5-1.1-1.1-1.1
				h-24.4c-0.7,0-1.1,0.5-1.1,1.1v19.7L222.3,38.8z"/>
			<path class="st6" d="M244.1,38.9h43.2c0-12-9.6-21.7-21.6-21.7C253.6,17.2,244.1,26.9,244.1,38.9z M251.9,38.9
				c0-7.6,6.2-13.9,13.7-13.9s13.8,6.3,13.8,13.9H251.9z"/>
			<path class="st6" d="M327.9,38.9v-20c0-0.6-0.5-1.1-1.1-1.1h-5.7c-0.7,0-1.1,0.5-1.1,1.1v20h-17.5v-20c0-0.6-0.5-1.1-1.1-1.1
				h-5.7c-0.6,0-1.1,0.5-1.1,1.1v20H327.9z"/>
		</g>
		<path class="st7" d="M251.9,38.9"/>
	</g>
</g>
</svg>
