<svg width="337" height="91" viewBox="0 0 337 91" fill="none" xmlns="http://www.w3.org/2000/svg">
<path d="M2.7 61.62C2.58 62.46 3.06 63 3.84 63H9.24C9.78 63 10.26 62.52 10.32 62.1L13.8 39.36C13.86 39.36 13.98 39.36 13.98 39.36L24.6 62.94C24.78 63.3 25.08 63.6 25.62 63.6H26.7C27.24 63.6 27.6 63.3 27.72 62.94L38.22 39.36C38.22 39.36 38.34 39.36 38.4 39.36L41.94 62.1C42.06 62.52 42.54 63 43.08 63H48.54C49.32 63 49.8 62.46 49.62 61.62L42.54 21.3C42.48 20.82 42.12 20.4 41.46 20.4H40.5C39.96 20.4 39.66 20.64 39.48 21L26.28 49.32C26.22 49.32 26.22 49.32 26.1 49.32L12.9 21C12.72 20.64 12.36 20.4 11.88 20.4H10.92C10.26 20.4 9.9 20.82 9.84 21.3L2.7 61.62ZM57.8428 61.86C57.8428 62.46 58.3228 63 58.9828 63H83.4028C84.0628 63 84.5428 62.46 84.5428 61.86V56.94C84.5428 56.34 84.0628 55.8 83.4028 55.8H65.6428V45.3H80.4628C81.0628 45.3 81.6028 44.82 81.6028 44.16V39.18C81.6028 38.58 81.0628 38.04 80.4628 38.04H65.6428V28.2H83.4028C84.0628 28.2 84.5428 27.66 84.5428 27.06V22.14C84.5428 21.54 84.0628 21 83.4028 21H58.9828C58.3228 21 57.8428 21.54 57.8428 22.14V61.86ZM89.9405 42.06C89.9405 54.06 99.5405 63.54 111.48 63.54C120.18 63.54 126.36 59.64 126.36 59.64C126.6 59.46 126.84 59.16 126.84 58.68V43.32C126.84 42.72 126.36 42.18 125.76 42.18H114.24C113.58 42.18 113.1 42.66 113.1 43.32V48.06C113.1 48.66 113.58 49.14 114.24 49.14H119.04V54.24C117.84 54.72 115.26 55.74 111.9 55.74C104.34 55.74 98.4005 49.44 98.4005 42C98.4005 34.5 104.34 28.08 111.84 28.08C115.14 28.08 118.32 29.28 120.9 31.56C121.44 32.04 121.98 32.04 122.46 31.56L126.18 27.66C126.66 27.18 126.6 26.46 126.12 25.98C122.04 22.5 116.88 20.4 111.48 20.4C99.5405 20.4 89.9405 30.06 89.9405 42.06ZM132.655 42.06C132.655 54.06 142.255 63.54 154.195 63.54C162.895 63.54 169.075 59.64 169.075 59.64C169.315 59.46 169.555 59.16 169.555 58.68V43.32C169.555 42.72 169.075 42.18 168.475 42.18H156.955C156.295 42.18 155.815 42.66 155.815 43.32V48.06C155.815 48.66 156.295 49.14 156.955 49.14H161.755V54.24C160.555 54.72 157.975 55.74 154.615 55.74C147.055 55.74 141.115 49.44 141.115 42C141.115 34.5 147.055 28.08 154.555 28.08C157.855 28.08 161.035 29.28 163.615 31.56C164.155 32.04 164.695 32.04 165.175 31.56L168.895 27.66C169.375 27.18 169.315 26.46 168.835 25.98C164.755 22.5 159.595 20.4 154.195 20.4C142.255 20.4 132.655 30.06 132.655 42.06ZM178.37 61.86C178.37 62.46 178.91 63 179.51 63H185.09C185.69 63 186.23 62.46 186.23 61.86V22.14C186.23 21.54 185.69 21 185.09 21H179.51C178.91 21 178.37 21.54 178.37 22.14V61.86ZM197.179 61.86C197.179 62.46 197.659 63 198.319 63H222.739C223.399 63 223.879 62.46 223.879 61.86V56.94C223.879 56.34 223.399 55.8 222.739 55.8H204.979V45.3H219.799C220.399 45.3 220.939 44.82 220.939 44.16V39.18C220.939 38.58 220.399 38.04 219.799 38.04H204.979V28.2H222.739C223.399 28.2 223.879 27.66 223.879 27.06V22.14C223.879 21.54 223.399 21 222.739 21H198.319C197.659 21 197.179 21.54 197.179 22.14V61.86ZM242.694 42.06C242.694 54.06 252.234 63.6 264.234 63.6C264.954 63.6 265.974 63.54 266.934 63.42L273.354 74.28C273.534 74.64 274.074 74.88 274.314 74.88H280.674C281.634 74.88 282.174 73.92 281.634 73.08L274.134 61.26C281.094 57.42 285.834 50.22 285.834 42.06C285.834 30.06 276.234 20.4 264.234 20.4C252.234 20.4 242.694 30.06 242.694 42.06ZM250.494 42.06C250.494 34.5 256.674 28.2 264.234 28.2C271.794 28.2 278.034 34.5 278.034 42.06C278.034 49.62 271.794 55.8 264.234 55.8C256.674 55.8 250.494 49.62 250.494 42.06ZM293.141 47.1C293.141 56.22 300.401 63.6 309.821 63.6C319.301 63.6 326.561 56.22 326.561 47.1V22.14C326.561 21.54 326.021 21 325.421 21H319.721C319.061 21 318.581 21.54 318.581 22.14V46.74C318.581 51.78 315.041 55.8 309.821 55.8C304.601 55.8 301.121 51.78 301.121 46.68V22.14C301.121 21.54 300.641 21 299.981 21H294.281C293.681 21 293.141 21.54 293.141 22.14V47.1Z" fill="#FF1493"/>
<path d="M7.7 66.62C7.58 67.46 8.06 68 8.84 68H14.24C14.78 68 15.26 67.52 15.32 67.1L18.8 44.36C18.86 44.36 18.98 44.36 18.98 44.36L29.6 67.94C29.78 68.3 30.08 68.6 30.62 68.6H31.7C32.24 68.6 32.6 68.3 32.72 67.94L43.22 44.36C43.22 44.36 43.34 44.36 43.4 44.36L46.94 67.1C47.06 67.52 47.54 68 48.08 68H53.54C54.32 68 54.8 67.46 54.62 66.62L47.54 26.3C47.48 25.82 47.12 25.4 46.46 25.4H45.5C44.96 25.4 44.66 25.64 44.48 26L31.28 54.32C31.22 54.32 31.22 54.32 31.1 54.32L17.9 26C17.72 25.64 17.36 25.4 16.88 25.4H15.92C15.26 25.4 14.9 25.82 14.84 26.3L7.7 66.62ZM62.8428 66.86C62.8428 67.46 63.3228 68 63.9828 68H88.4028C89.0628 68 89.5428 67.46 89.5428 66.86V61.94C89.5428 61.34 89.0628 60.8 88.4028 60.8H70.6428V50.3H85.4628C86.0628 50.3 86.6028 49.82 86.6028 49.16V44.18C86.6028 43.58 86.0628 43.04 85.4628 43.04H70.6428V33.2H88.4028C89.0628 33.2 89.5428 32.66 89.5428 32.06V27.14C89.5428 26.54 89.0628 26 88.4028 26H63.9828C63.3228 26 62.8428 26.54 62.8428 27.14V66.86ZM94.9405 47.06C94.9405 59.06 104.54 68.54 116.48 68.54C125.18 68.54 131.36 64.64 131.36 64.64C131.6 64.46 131.84 64.16 131.84 63.68V48.32C131.84 47.72 131.36 47.18 130.76 47.18H119.24C118.58 47.18 118.1 47.66 118.1 48.32V53.06C118.1 53.66 118.58 54.14 119.24 54.14H124.04V59.24C122.84 59.72 120.26 60.74 116.9 60.74C109.34 60.74 103.4 54.44 103.4 47C103.4 39.5 109.34 33.08 116.84 33.08C120.14 33.08 123.32 34.28 125.9 36.56C126.44 37.04 126.98 37.04 127.46 36.56L131.18 32.66C131.66 32.18 131.6 31.46 131.12 30.98C127.04 27.5 121.88 25.4 116.48 25.4C104.54 25.4 94.9405 35.06 94.9405 47.06ZM137.655 47.06C137.655 59.06 147.255 68.54 159.195 68.54C167.895 68.54 174.075 64.64 174.075 64.64C174.315 64.46 174.555 64.16 174.555 63.68V48.32C174.555 47.72 174.075 47.18 173.475 47.18H161.955C161.295 47.18 160.815 47.66 160.815 48.32V53.06C160.815 53.66 161.295 54.14 161.955 54.14H166.755V59.24C165.555 59.72 162.975 60.74 159.615 60.74C152.055 60.74 146.115 54.44 146.115 47C146.115 39.5 152.055 33.08 159.555 33.08C162.855 33.08 166.035 34.28 168.615 36.56C169.155 37.04 169.695 37.04 170.175 36.56L173.895 32.66C174.375 32.18 174.315 31.46 173.835 30.98C169.755 27.5 164.595 25.4 159.195 25.4C147.255 25.4 137.655 35.06 137.655 47.06ZM183.37 66.86C183.37 67.46 183.91 68 184.51 68H190.09C190.69 68 191.23 67.46 191.23 66.86V27.14C191.23 26.54 190.69 26 190.09 26H184.51C183.91 26 183.37 26.54 183.37 27.14V66.86ZM202.179 66.86C202.179 67.46 202.659 68 203.319 68H227.739C228.399 68 228.879 67.46 228.879 66.86V61.94C228.879 61.34 228.399 60.8 227.739 60.8H209.979V50.3H224.799C225.399 50.3 225.939 49.82 225.939 49.16V44.18C225.939 43.58 225.399 43.04 224.799 43.04H209.979V33.2H227.739C228.399 33.2 228.879 32.66 228.879 32.06V27.14C228.879 26.54 228.399 26 227.739 26H203.319C202.659 26 202.179 26.54 202.179 27.14V66.86ZM247.694 47.06C247.694 59.06 257.234 68.6 269.234 68.6C269.954 68.6 270.974 68.54 271.934 68.42L278.354 79.28C278.534 79.64 279.074 79.88 279.314 79.88H285.674C286.634 79.88 287.174 78.92 286.634 78.08L279.134 66.26C286.094 62.42 290.834 55.22 290.834 47.06C290.834 35.06 281.234 25.4 269.234 25.4C257.234 25.4 247.694 35.06 247.694 47.06ZM255.494 47.06C255.494 39.5 261.674 33.2 269.234 33.2C276.794 33.2 283.034 39.5 283.034 47.06C283.034 54.62 276.794 60.8 269.234 60.8C261.674 60.8 255.494 54.62 255.494 47.06ZM298.141 52.1C298.141 61.22 305.401 68.6 314.821 68.6C324.301 68.6 331.561 61.22 331.561 52.1V27.14C331.561 26.54 331.021 26 330.421 26H324.721C324.061 26 323.581 26.54 323.581 27.14V51.74C323.581 56.78 320.041 60.8 314.821 60.8C309.601 60.8 306.121 56.78 306.121 51.68V27.14C306.121 26.54 305.641 26 304.981 26H299.281C298.681 26 298.141 26.54 298.141 27.14V52.1Z" fill="#212121"/>
</svg>
