<svg width="332" height="86" viewBox="0 0 332 86" fill="none" xmlns="http://www.w3.org/2000/svg">
<path d="M2.7 61.62C2.58 62.46 3.06 63 3.84 63H9.24C9.78 63 10.26 62.52 10.32 62.1L13.8 39.36C13.86 39.36 13.98 39.36 13.98 39.36L24.6 62.94C24.78 63.3 25.08 63.6 25.62 63.6H26.7C27.24 63.6 27.6 63.3 27.72 62.94L38.22 39.36C38.22 39.36 38.34 39.36 38.4 39.36L41.94 62.1C42.06 62.52 42.54 63 43.08 63H48.54C49.32 63 49.8 62.46 49.62 61.62L42.54 21.3C42.48 20.82 42.12 20.4 41.46 20.4H40.5C39.96 20.4 39.66 20.64 39.48 21L26.28 49.32C26.22 49.32 26.22 49.32 26.1 49.32L12.9 21C12.72 20.64 12.36 20.4 11.88 20.4H10.92C10.26 20.4 9.9 20.82 9.84 21.3L2.7 61.62ZM57.8428 61.86C57.8428 62.46 58.3228 63 58.9828 63H83.4028C84.0628 63 84.5428 62.46 84.5428 61.86V56.94C84.5428 56.34 84.0628 55.8 83.4028 55.8H65.6428V45.3H80.4628C81.0628 45.3 81.6028 44.82 81.6028 44.16V39.18C81.6028 38.58 81.0628 38.04 80.4628 38.04H65.6428V28.2H83.4028C84.0628 28.2 84.5428 27.66 84.5428 27.06V22.14C84.5428 21.54 84.0628 21 83.4028 21H58.9828C58.3228 21 57.8428 21.54 57.8428 22.14V61.86ZM89.9405 42.06C89.9405 54.06 99.5405 63.54 111.48 63.54C120.18 63.54 126.36 59.64 126.36 59.64C126.6 59.46 126.84 59.16 126.84 58.68V43.32C126.84 42.72 126.36 42.18 125.76 42.18H114.24C113.58 42.18 113.1 42.66 113.1 43.32V48.06C113.1 48.66 113.58 49.14 114.24 49.14H119.04V54.24C117.84 54.72 115.26 55.74 111.9 55.74C104.34 55.74 98.4005 49.44 98.4005 42C98.4005 34.5 104.34 28.08 111.84 28.08C115.14 28.08 118.32 29.28 120.9 31.56C121.44 32.04 121.98 32.04 122.46 31.56L126.18 27.66C126.66 27.18 126.6 26.46 126.12 25.98C122.04 22.5 116.88 20.4 111.48 20.4C99.5405 20.4 89.9405 30.06 89.9405 42.06ZM132.655 42.06C132.655 54.06 142.255 63.54 154.195 63.54C162.895 63.54 169.075 59.64 169.075 59.64C169.315 59.46 169.555 59.16 169.555 58.68V43.32C169.555 42.72 169.075 42.18 168.475 42.18H156.955C156.295 42.18 155.815 42.66 155.815 43.32V48.06C155.815 48.66 156.295 49.14 156.955 49.14H161.755V54.24C160.555 54.72 157.975 55.74 154.615 55.74C147.055 55.74 141.115 49.44 141.115 42C141.115 34.5 147.055 28.08 154.555 28.08C157.855 28.08 161.035 29.28 163.615 31.56C164.155 32.04 164.695 32.04 165.175 31.56L168.895 27.66C169.375 27.18 169.315 26.46 168.835 25.98C164.755 22.5 159.595 20.4 154.195 20.4C142.255 20.4 132.655 30.06 132.655 42.06ZM178.37 61.86C178.37 62.46 178.91 63 179.51 63H185.09C185.69 63 186.23 62.46 186.23 61.86V22.14C186.23 21.54 185.69 21 185.09 21H179.51C178.91 21 178.37 21.54 178.37 22.14V61.86ZM197.179 61.86C197.179 62.46 197.659 63 198.319 63H222.739C223.399 63 223.879 62.46 223.879 61.86V56.94C223.879 56.34 223.399 55.8 222.739 55.8H204.979V45.3H219.799C220.399 45.3 220.939 44.82 220.939 44.16V39.18C220.939 38.58 220.399 38.04 219.799 38.04H204.979V28.2H222.739C223.399 28.2 223.879 27.66 223.879 27.06V22.14C223.879 21.54 223.399 21 222.739 21H198.319C197.659 21 197.179 21.54 197.179 22.14V61.86ZM242.694 42.06C242.694 54.06 252.234 63.6 264.234 63.6C264.954 63.6 265.974 63.54 266.934 63.42L273.354 74.28C273.534 74.64 274.074 74.88 274.314 74.88H280.674C281.634 74.88 282.174 73.92 281.634 73.08L274.134 61.26C281.094 57.42 285.834 50.22 285.834 42.06C285.834 30.06 276.234 20.4 264.234 20.4C252.234 20.4 242.694 30.06 242.694 42.06ZM250.494 42.06C250.494 34.5 256.674 28.2 264.234 28.2C271.794 28.2 278.034 34.5 278.034 42.06C278.034 49.62 271.794 55.8 264.234 55.8C256.674 55.8 250.494 49.62 250.494 42.06ZM293.141 47.1C293.141 56.22 300.401 63.6 309.821 63.6C319.301 63.6 326.561 56.22 326.561 47.1V22.14C326.561 21.54 326.021 21 325.421 21H319.721C319.061 21 318.581 21.54 318.581 22.14V46.74C318.581 51.78 315.041 55.8 309.821 55.8C304.601 55.8 301.121 51.78 301.121 46.68V22.14C301.121 21.54 300.641 21 299.981 21H294.281C293.681 21 293.141 21.54 293.141 22.14V47.1Z" fill="#424242"/>
<path d="M2.7 61.62C2.58 62.46 3.06 63 3.84 63H9.24C9.78 63 10.26 62.52 10.32 62.1L13.8 39.36C13.86 39.36 13.98 39.36 13.98 39.36L24.6 62.94C24.78 63.3 25.08 63.6 25.62 63.6H26.7C27.24 63.6 27.6 63.3 27.72 62.94L38.22 39.36C38.22 39.36 38.34 39.36 38.4 39.36L41.94 62.1C42.06 62.52 42.54 63 43.08 63H48.54C49.32 63 49.8 62.46 49.62 61.62L42.54 21.3C42.48 20.82 42.12 20.4 41.46 20.4H40.5C39.96 20.4 39.66 20.64 39.48 21L26.28 49.32C26.22 49.32 26.22 49.32 26.1 49.32L12.9 21C12.72 20.64 12.36 20.4 11.88 20.4H10.92C10.26 20.4 9.9 20.82 9.84 21.3L2.7 61.62ZM57.8428 61.86C57.8428 62.46 58.3228 63 58.9828 63H83.4028C84.0628 63 84.5428 62.46 84.5428 61.86V56.94C84.5428 56.34 84.0628 55.8 83.4028 55.8H65.6428V45.3H80.4628C81.0628 45.3 81.6028 44.82 81.6028 44.16V39.18C81.6028 38.58 81.0628 38.04 80.4628 38.04H65.6428V28.2H83.4028C84.0628 28.2 84.5428 27.66 84.5428 27.06V22.14C84.5428 21.54 84.0628 21 83.4028 21H58.9828C58.3228 21 57.8428 21.54 57.8428 22.14V61.86ZM89.9405 42.06C89.9405 54.06 99.5405 63.54 111.48 63.54C120.18 63.54 126.36 59.64 126.36 59.64C126.6 59.46 126.84 59.16 126.84 58.68V43.32C126.84 42.72 126.36 42.18 125.76 42.18H114.24C113.58 42.18 113.1 42.66 113.1 43.32V48.06C113.1 48.66 113.58 49.14 114.24 49.14H119.04V54.24C117.84 54.72 115.26 55.74 111.9 55.74C104.34 55.74 98.4005 49.44 98.4005 42C98.4005 34.5 104.34 28.08 111.84 28.08C115.14 28.08 118.32 29.28 120.9 31.56C121.44 32.04 121.98 32.04 122.46 31.56L126.18 27.66C126.66 27.18 126.6 26.46 126.12 25.98C122.04 22.5 116.88 20.4 111.48 20.4C99.5405 20.4 89.9405 30.06 89.9405 42.06ZM132.655 42.06C132.655 54.06 142.255 63.54 154.195 63.54C162.895 63.54 169.075 59.64 169.075 59.64C169.315 59.46 169.555 59.16 169.555 58.68V43.32C169.555 42.72 169.075 42.18 168.475 42.18H156.955C156.295 42.18 155.815 42.66 155.815 43.32V48.06C155.815 48.66 156.295 49.14 156.955 49.14H161.755V54.24C160.555 54.72 157.975 55.74 154.615 55.74C147.055 55.74 141.115 49.44 141.115 42C141.115 34.5 147.055 28.08 154.555 28.08C157.855 28.08 161.035 29.28 163.615 31.56C164.155 32.04 164.695 32.04 165.175 31.56L168.895 27.66C169.375 27.18 169.315 26.46 168.835 25.98C164.755 22.5 159.595 20.4 154.195 20.4C142.255 20.4 132.655 30.06 132.655 42.06ZM178.37 61.86C178.37 62.46 178.91 63 179.51 63H185.09C185.69 63 186.23 62.46 186.23 61.86V22.14C186.23 21.54 185.69 21 185.09 21H179.51C178.91 21 178.37 21.54 178.37 22.14V61.86ZM197.179 61.86C197.179 62.46 197.659 63 198.319 63H222.739C223.399 63 223.879 62.46 223.879 61.86V56.94C223.879 56.34 223.399 55.8 222.739 55.8H204.979V45.3H219.799C220.399 45.3 220.939 44.82 220.939 44.16V39.18C220.939 38.58 220.399 38.04 219.799 38.04H204.979V28.2H222.739C223.399 28.2 223.879 27.66 223.879 27.06V22.14C223.879 21.54 223.399 21 222.739 21H198.319C197.659 21 197.179 21.54 197.179 22.14V61.86ZM242.694 42.06C242.694 54.06 252.234 63.6 264.234 63.6C264.954 63.6 265.974 63.54 266.934 63.42L273.354 74.28C273.534 74.64 274.074 74.88 274.314 74.88H280.674C281.634 74.88 282.174 73.92 281.634 73.08L274.134 61.26C281.094 57.42 285.834 50.22 285.834 42.06C285.834 30.06 276.234 20.4 264.234 20.4C252.234 20.4 242.694 30.06 242.694 42.06ZM250.494 42.06C250.494 34.5 256.674 28.2 264.234 28.2C271.794 28.2 278.034 34.5 278.034 42.06C278.034 49.62 271.794 55.8 264.234 55.8C256.674 55.8 250.494 49.62 250.494 42.06ZM293.141 47.1C293.141 56.22 300.401 63.6 309.821 63.6C319.301 63.6 326.561 56.22 326.561 47.1V22.14C326.561 21.54 326.021 21 325.421 21H319.721C319.061 21 318.581 21.54 318.581 22.14V46.74C318.581 51.78 315.041 55.8 309.821 55.8C304.601 55.8 301.121 51.78 301.121 46.68V22.14C301.121 21.54 300.641 21 299.981 21H294.281C293.681 21 293.141 21.54 293.141 22.14V47.1Z" fill="#FF1493"/>
</svg>
