<?xml version="1.0" encoding="utf-8"?>
<!-- Generator: Adobe Illustrator 26.0.1, SVG Export Plug-In . SVG Version: 6.00 Build 0)  -->
<svg version="1.1" id="Layer_1" xmlns="http://www.w3.org/2000/svg" xmlns:xlink="http://www.w3.org/1999/xlink" x="0px" y="0px"
	 viewBox="0 0 508.6 402.6" style="enable-background:new 0 0 508.6 402.6;" xml:space="preserve">
<style type="text/css">
	.st0{fill:#065535;}
	.st1{fill:#FFFFFF;}
	.st2{fill:#CDDDD6;}
	.st3{fill:#82AA9A;}
</style>
<g id="Layer_2">
	<path class="st0" d="M500,59.1v-59H311.8L250,228.3L186.7,0L0,0.1v58.5c0,0,19,0,24.2,0s15.1,8.7,15.1,16.8s0,239.3,0,246.3
		s-11.1,16.8-18.4,16.8s-20.9,0-20.9,0v57.4h149.9v-58h-35.7V79.2l87.7,316.6h67l88.2-317.1v259.1h-36.9v58H500v-58.6
		c0,0-19.5,0-23.4,0c-3.9,0-14.5-7.8-14.5-14.5s0-240.2,0-247.9"/>
</g>
<polygon class="st1" points="17.4,17.6 17.4,44.8 50.4,44.8 50.4,354.4 17.4,354.4 17.4,386.8 137.9,386.8 137.9,358.1 101,358.1 
	101,63.9 127.2,63.9 215.3,386.8 261,386.8 359.3,49.9 376.5,49.9 376.5,358.1 342.1,358.1 341.6,386.8 494.6,386.8 493.7,358.1 
	457.7,358.1 457.7,48.6 494.6,48.6 494.6,17.6 330.2,17.6 254.9,278.1 177.2,17.9 "/>
<polygon class="st2" points="33.3,17 33.4,44.3 66.7,44.3 66.7,353.9 32.2,353.9 32.2,386.2 137.9,386.2 137.9,357.5 101,357.5 
	101,63.3 127.2,63.3 215.3,386.2 261,386.2 359.3,49.3 376.5,49.3 376.5,357.5 342.1,357.5 341.6,386.2 494.6,386.2 493.7,357.5 
	457.7,357.5 457.7,48.1 494.6,48.1 494.6,17.1 330.2,17 254.9,277.6 177.2,17.3 "/>
<rect x="32.2" y="247.3" class="st1" width="22" height="43"/>
<circle class="st0" cx="44.1" cy="268.1" r="8.4"/>
<polygon class="st3" points="494.6,386.8 449.9,386.8 449.9,17 494.6,17 494.6,49.4 457.7,49.5 457.7,357.5 495.4,357.2 "/>
</svg>
