<?xml version="1.0" encoding="utf-8"?>
<!-- Generator: Adobe Illustrator 26.0.1, SVG Export Plug-In . SVG Version: 6.00 Build 0)  -->
<svg version="1.1" id="Capa_1" xmlns="http://www.w3.org/2000/svg" xmlns:xlink="http://www.w3.org/1999/xlink" x="0px" y="0px"
	 viewBox="0 0 512 512" style="enable-background:new 0 0 512 512;" xml:space="preserve">
<style type="text/css">
	.st0{fill:#82AA9A;}
	.st1{fill:#CDDDD6;}
	.st2{fill:#FFFFFF;}
	.st3{fill:#065535;}
</style>
<path class="st0" d="M503.5,456.5l-30.7-12.8l-71.7-29.9H119.5c-9.4,0-17-7.7-17.1-17.1V174.9c0-9.4,7.7-17,17.1-17.1h332.8
	c9.4,0,17,7.7,17.1,17.1v196.3L503.5,456.5z"/>
<path class="st1" d="M472.8,443.7l-71.7-29.9H119.5c-9.4,0-17-7.7-17.1-17.1V174.9c0-9.4,7.7-17,17.1-17.1h307.2
	c9.4,0,17,7.7,17.1,17.1v196.3L472.8,443.7z"/>
<path class="st0" d="M409.6,72.5v221.9c0,9.4-7.7,17-17.1,17.1H110.9L8.5,354.1l5.1-12.8l29-72.5V72.5c0-9.4,7.7-17,17.1-17.1h332.8
	C402,55.5,409.6,63.1,409.6,72.5z"/>
<path class="st1" d="M384,72.5v221.9c0,9.4-7.7,17-17.1,17.1H85.3l-71.7,29.9l29-72.5V72.5c0-9.4,7.7-17,17.1-17.1h307.2
	C376.4,55.5,384,63.1,384,72.5z"/>
<g>
	<path class="st2" d="M102.4,157.9h34.1c9.4,0,17.1,7.6,17.1,17.1v17c0,9.4-7.6,17.1-17.1,17.1h-34.1c-9.4,0-17.1-7.6-17.1-17.1
		v-17.1C85.3,165.5,93,157.9,102.4,157.9z"/>
	<path class="st2" d="M213.3,157.9h34.1c9.4,0,17.1,7.6,17.1,17.1v17c0,9.4-7.6,17.1-17.1,17.1h-34.1c-9.4,0-17.1-7.6-17.1-17.1
		v-17.1C196.3,165.5,203.9,157.9,213.3,157.9z"/>
	<path class="st2" d="M324.3,157.9h34.1c9.4,0,17.1,7.6,17.1,17.1v17c0,9.4-7.6,17.1-17.1,17.1h-34.1c-9.4,0-17.1-7.6-17.1-17.1
		v-17.1C307.2,165.5,314.8,157.9,324.3,157.9z"/>
</g>
<g>
	<path class="st2" d="M119.5,413.9h25.6c-9.4,0-17-7.7-17.1-17.1V315l-25.6,10.7v71.1C102.4,406.2,110.1,413.9,119.5,413.9z"/>
	<path class="st2" d="M39.3,341.3l29-72.5V72.5c0-9.4,7.7-17,17.1-17.1H59.7c-9.4,0-17,7.7-17.1,17.1v196.3l-29,72.5l-5.1,12.8
		L39.3,341.3z"/>
</g>
<polygon class="st2" points="34.1,268.8 34.1,157.9 34.1,72.5 51.2,72.5 51.2,157.9 51.2,268.8 "/>
<g>
	<path class="st3" d="M39.4,208.4c0.5,0.2,1,0.4,1.5,0.5c0.6,0.1,1.1,0.2,1.7,0.2c2.3,0,4.4-0.9,6.1-2.5c0.8-0.8,1.4-1.8,1.8-2.8
		c1.3-3.2,0.6-6.8-1.8-9.3c-0.8-0.8-1.8-1.4-2.8-1.8c-1-0.4-2.1-0.7-3.2-0.7c-3.5,0-6.6,2.1-7.9,5.3c-1.3,3.2-0.6,6.9,1.9,9.3l1.3,1
		C38.4,208,38.9,208.2,39.4,208.4z"/>
	<path class="st3" d="M8.5,362.7c1.1,0,2.2-0.2,3.3-0.7l100.8-42h279.9c14.1,0,25.6-11.5,25.6-25.6V72.5c0-14.1-11.5-25.6-25.6-25.6
		H59.7c-14.1,0-25.6,11.5-25.6,25.6v93.9c0,4.7,3.8,8.5,8.5,8.5s8.5-3.8,8.5-8.5V72.5c0-4.7,3.8-8.5,8.5-8.5h332.8
		c4.7,0,8.5,3.8,8.5,8.5v221.9c0,4.7-3.8,8.5-8.5,8.5H110.9c-1.1,0-2.2,0.2-3.3,0.7L24,338.5L50.6,272c0.4-1,0.6-2.1,0.6-3.2v-34.1
		c0-4.7-3.8-8.5-8.5-8.5s-8.5,3.8-8.5,8.5v32.5L0.6,351c-1.1,2.6-0.7,5.6,0.9,8C3.1,361.3,5.7,362.7,8.5,362.7z"/>
	<path class="st3" d="M443.7,166.4h8.5c4.7,0,8.5,3.8,8.5,8.5v196.3c0.2,1.1,0.4,2.1,0.6,3.2l26.6,66.5L404.4,406
		c-0.5-0.2-1.1-0.3-1.6-0.3c-0.6-0.2-1.1-0.3-1.7-0.4H119.5c-4.7,0-8.5-3.8-8.5-8.5v-25.6c0-4.7-3.8-8.5-8.5-8.5s-8.5,3.8-8.5,8.5
		v25.6c0,14.1,11.5,25.6,25.6,25.6h279.9l100.8,42c3.2,1.3,6.9,0.6,9.3-1.8c2.5-2.4,3.2-6.1,1.9-9.3L478,369.5V174.9
		c0-14.1-11.5-25.6-25.6-25.6h-8.5c-4.7,0-8.5,3.8-8.5,8.5C435.2,162.6,439,166.4,443.7,166.4z"/>
	<path class="st3" d="M136.5,217.6c14.1,0,25.6-11.5,25.6-25.6v-17.1c0-14.1-11.5-25.6-25.6-25.6h-34.1c-14.1,0-25.6,11.5-25.6,25.6
		V192c0,14.1,11.5,25.6,25.6,25.6H136.5z M93.9,192v-17.1c0-4.7,3.8-8.5,8.5-8.5h34.1c4.7,0,8.5,3.8,8.5,8.5V192
		c0,4.7-3.8,8.5-8.5,8.5h-34.1C97.7,200.5,93.9,196.7,93.9,192z"/>
	<path class="st3" d="M247.5,217.6c14.1,0,25.6-11.5,25.6-25.6v-17.1c0-14.1-11.5-25.6-25.6-25.6h-34.1c-14.1,0-25.6,11.5-25.6,25.6
		V192c0,14.1,11.5,25.6,25.6,25.6H247.5z M204.8,192v-17.1c0-4.7,3.8-8.5,8.5-8.5h34.1c4.7,0,8.5,3.8,8.5,8.5V192
		c0,4.7-3.8,8.5-8.5,8.5h-34.1C208.6,200.5,204.8,196.7,204.8,192z"/>
	<path class="st3" d="M358.4,217.6c14.1,0,25.6-11.5,25.6-25.6v-17.1c0-14.1-11.5-25.6-25.6-25.6h-34.1c-14.1,0-25.6,11.5-25.6,25.6
		V192c0,14.1,11.5,25.6,25.6,25.6H358.4z M315.7,192v-17.1c0-4.7,3.8-8.5,8.5-8.5h34.1c4.7,0,8.5,3.8,8.5,8.5V192
		c0,4.7-3.8,8.5-8.5,8.5h-34.1C319.6,200.5,315.7,196.7,315.7,192z"/>
</g>
</svg>
