<svg width="60" height="60" viewBox="0 0 60 60" fill="none" xmlns="http://www.w3.org/2000/svg">
<g clip-path="url(#clip0_1005_3912)">
<ellipse cx="29.909" cy="27.2727" rx="25.0909" ry="27.2727" fill="black"/>
<path d="M19.8926 40.3637H12.4546V39.1779C12.4546 39.1779 15.4298 39.1779 15.4298 36.2135V16.3518C15.4298 13.3691 12.7521 13.9803 12.7521 13.9803V13.0909H21.9753C23.7604 13.0909 29.1157 33.5455 29.7108 31.7668C30.3058 29.9882 36.5538 13.0909 36.5538 13.0909H45.4794V13.9803C45.4794 13.9803 42.8017 13.1811 42.8017 14.8696V38.2886C42.8017 39.7708 48.4546 39.1779 48.4546 39.1779V40.3637H33.281V39.1779C33.281 39.1779 36.5538 39.4743 36.5538 37.6957V15.7589L27.6281 40.3637H26.7356C24.9505 40.3637 16.3224 11.3123 16.3224 16.3518C16.3224 21.3913 16.6199 35.917 16.6199 37.6957C16.6199 39.4743 19.8926 39.1779 19.8926 39.1779V40.3637Z" fill="white"/>
<path d="M8.80918 48.6153C5.43184 48.178 3.72729 49.5443 3.72729 50.7829C3.72729 52.0215 5.5836 53.5639 7.70457 52.9505C9.82553 52.3371 10.3584 51.4727 12.8182 51.7177C15.278 51.9628 34.5363 61.6208 45.9705 59.7628C57.4048 57.9049 58.9928 46.1381 58.04 45.8285C57.0871 45.5188 54.5462 52.3312 43.7472 52.9505C32.9482 53.5698 12.1865 49.0527 8.80918 48.6153Z" fill="black"/>
<path fill-rule="evenodd" clip-rule="evenodd" d="M38.4579 52.9217C35.7898 53.9725 32.9111 54.5455 29.9092 54.5455C24.7032 54.5455 19.8675 52.8221 15.8586 49.8716C22.1405 51.0091 31.2086 52.5431 38.4579 52.9217Z" fill="white"/>
</g>
<defs>
<clipPath id="clip0_1005_3912">
<rect width="60" height="60" fill="white"/>
</clipPath>
</defs>
</svg>
