<svg width="381" height="380" viewBox="0 0 381 380" fill="none" xmlns="http://www.w3.org/2000/svg">
<g clip-path="url(#clip0_1017_4047)">
<ellipse cx="190.5" cy="167.833" rx="158.333" ry="167.833" fill="#EAD0D9"/>
<path d="M126.487 255.637H79.3792V248.127C79.3792 248.127 98.2221 248.127 98.2221 229.352V103.561C98.2221 84.6707 81.2634 88.5417 81.2634 88.5417V82.9093H139.677C150.982 82.9093 184.9 212.455 188.668 201.19C192.437 189.925 232.007 82.9093 232.007 82.9093H288.536V88.5417C288.536 88.5417 271.577 83.48 271.577 94.1741V242.494C271.577 251.882 307.379 248.127 307.379 248.127V255.637H211.28V248.127C211.28 248.127 232.007 250.004 232.007 238.739V99.8065L175.478 255.637H169.825C158.52 255.637 103.875 71.6445 103.875 103.561C103.875 135.478 105.759 227.475 105.759 238.739C105.759 250.004 126.487 248.127 126.487 248.127V255.637Z" fill="white"/>
<path d="M57.6967 298.653C36.5208 295.528 25.8333 305.29 25.8333 314.141C25.8333 322.991 37.4723 334.012 50.7708 329.629C64.0692 325.246 67.4103 319.069 82.8333 320.82C98.2562 322.571 219.005 391.58 290.698 378.305C362.391 365.03 372.348 280.952 366.374 278.74C360.399 276.527 344.468 325.204 276.758 329.629C209.048 334.054 78.8727 301.778 57.6967 298.653Z" fill="#EAD0D9"/>
<path d="M102.439 307.739C139.306 315.34 191.24 325.359 234.848 328.812C220.606 333.271 205.529 335.667 189.923 335.667C157.58 335.667 127.503 325.385 102.439 307.739Z" fill="white"/>
</g>
<defs>
<clipPath id="clip0_1017_4047">
<rect width="380" height="380" fill="white" transform="translate(0.5)"/>
</clipPath>
</defs>
</svg>
