<?xml version="1.0" encoding="utf-8"?>
<!-- Generator: Adobe Illustrator 26.0.1, SVG Export Plug-In . SVG Version: 6.00 Build 0)  -->
<svg version="1.1" id="Layer_1" xmlns="http://www.w3.org/2000/svg" xmlns:xlink="http://www.w3.org/1999/xlink" x="0px" y="0px"
	 viewBox="0 0 504.9 504.9" style="enable-background:new 0 0 504.9 504.9;" xml:space="preserve">
<style type="text/css">
	.st0{fill:#CDDDD6;}
	.st1{fill:#FFFFFF;}
	.st2{fill:#82AA9A;}
	.st3{fill:#065535;}
</style>
<path class="st0" d="M470.9,119.5c3.4-21,3.4-42-9.2-57.9C444,39,430.6,38.1,404.6,42.3c-21,3.4-91.5,35.3-115.8,110.8
	c42.8-3.4,64.6,3.4,60.4,50.4c-1.7,20.1-11.8,42-22.7,63c-18.5,34.4-44.5,61.3-66.3,36.9c-28.5-31.1-26-89.8-32.7-128.4
	c-3.4-21.8-7.6-49.5-14.3-72.2C207.3,83.5,193.1,60,176.3,55c-18.5-5.9-17.6,3.4-31.1,10.9C102.4,91,70.5,127.1,33.6,157.3v2.5
	c7.6,6.7,9.2,18.5,20.1,20.1c25.2,4.2,49.5-23.5,66.3,5c10.1,17.6,13.4,36.9,20.1,56.2c8.4,25.2,15.9,52.9,22.7,82.3
	c11.8,49.5,3.4,122.5,45.3,141c21.8,9.2,28.5-3.4,44.5-12.6c44.5-26.9,73-64.6,102.4-104.1C422.2,254.7,465,149.8,470.9,119.5"/>
<g>
	<path class="st1" d="M33.6,159.8v-2.5c36.9-29.4,68.8-65.5,111.6-91.5c9.2-5.9,11.8-11.8,19.3-12.6c-15.9-0.8-33.6,5.9-44.5,12.6
		C77.2,91,45.3,127.1,8.4,157.3v2.5c7.6,6.7,9.2,18.5,20.1,20.1c6.7,0.8,13.4,0,20.1-1.7C42,174.1,39.4,165.7,33.6,159.8"/>
	<path class="st1" d="M208.2,463.7c-42-17.6-33.6-91.5-45.3-141c-7.6-29.4-14.3-57.1-22.7-82.3c-6.7-19.3-10.1-38.6-20.1-56.2
		c-9.2-16.8-21.8-14.3-35.3-10.1c3.4,1.7,6.7,5,10.1,10.1c10.1,17.6,13.4,36.9,20.1,56.2c8.4,25.2,15.9,52.9,22.7,82.3
		c11.8,49.5,26.9,122.5,68.8,141c5.9,2.5,10.1,3.4,14.3,3.4C217.4,467,213.2,466.2,208.2,463.7"/>
</g>
<path class="st2" d="M402,42.3c26-4.2,39.4-3.4,57.1,19.3c12.6,15.9,12.6,37.8,9.2,57.9c-5.9,30.2-48.7,135.1-115.8,227.5
	c-29.4,39.4-57.9,77.2-102.4,104.1c-9.2,5.9-15.9,12.6-23.5,15.1c17.6-0.8,37.8-9.2,48.7-15.9c44.5-26.9,78.9-64.6,108.3-104.1
	c67.1-92.3,104.1-197.2,110-227.5c3.4-21,3.4-42-9.2-57.9c-17.6-22.7-55.4-23.5-80.6-19.3"/>
<path class="st3" d="M224.1,474.6c-7.6,0-14.3-0.8-21-4.2c-42.8-18.5-59.6-86.5-71.3-136l-2.5-11.8c-4.2-15.9-7.6-31.9-11.8-47
	c-0.8-4.2,1.7-9.2,5.9-10.1s9.2,1.7,10.1,5.9c4.2,15.1,8.4,31.1,11.8,47l2.5,11.8c10.9,46.2,26,109.1,61.3,124.2
	c17.6,7.6,47-3.4,62.1-12.6c47.8-27.7,81.4-68.8,106.6-101.6C444.9,248,480.9,142.2,486,117c4.2-23.5,1.7-39.4-7.6-51.2
	c-17.6-22.7-60.4-18.5-73-15.9c-12.6,1.7-77.2,26-104.9,93.2c17.6-0.8,34.4,1.7,45.3,12.6c10.1,10.1,13.4,25.2,11.8,47.8
	c-1.7,22.7-13.4,46.2-23.5,65.5l-0.8,1.7c-10.1,19.3-26,48.7-48.7,52c-10.9,1.7-21.8-3.4-31.9-14.3c-23.5-25.2-27.7-66.3-31.1-102.4
	c-0.8-10.9-2.5-21-3.4-30.2l-1.7-9.2c-3.4-20.1-6.7-42-12.6-61.3c-5.9-18.5-18.5-38.6-31.9-42c-15.1-4.2-35.3,2.5-47.8,10.1
	c-26.9,15.1-50.4,36.1-73.9,57.1c-10.1,9.2-21,19.3-31.9,27.7c0.8,1.7,1.7,3.4,3.4,4.2c3.4,5,5,7.6,7.6,7.6
	c7.6,0.8,15.1-1.7,23.5-4.2c14.3-5,34.4-10.9,48.7,12.6c5.9,10.1,9.2,21,13.4,33.6c1.7,4.2-0.8,9.2-5.9,10.1
	c-4.2,1.7-9.2-0.8-10.1-5.9c-3.4-11.8-6.7-21-11.8-29.4c-6.7-11.8-13.4-10.1-29.4-5c-9.2,3.4-20.1,5.9-31.1,4.2
	s-15.8-10.2-19.1-16.1c-1.7-2.5-3.4-5-5-6.7c-1.7,0-2.5-2.5-2.5-4.2v-2.5c0-2.5,0.8-5,3.4-6.7c12.6-10.1,24.3-21,36.1-31.9
	C63,96.9,87.3,75,115.8,57.4c15.9-10.1,41.1-17.6,61.3-11.8c21,5.9,36.1,32.7,42.8,53.7c5.9,20.1,10.1,42.8,13.4,63.8l1.7,9.2
	c1.7,10.1,2.5,20.1,4.2,31.9c3.4,33.6,7.6,71.3,26.9,92.3c5.9,6.7,11.8,10.1,17.6,9.2c14.3-1.7,28.5-28.5,36.1-42.8l0.8-1.7
	c10.1-18.5,20.1-40.3,21.8-59.6c1.7-17.6-0.8-28.5-6.7-34.4c-6.7-6.7-20.1-9.2-45.3-6.7c-2.5,0-5.9-0.8-7.6-3.4
	c-1.7-2.5-2.5-5-1.7-7.6C305.4,70.6,379.3,36.2,402.8,32c15.1-2.5,65.5-7.6,89,22.7c11.8,15.1,15.9,36.9,10.9,64.6
	s-41.1,134.3-111.6,230.8c-26,34.4-61.3,76.4-110.8,106.6C267.8,464.5,245.1,474.6,224.1,474.6z"/>
<path class="st3" d="M127.6,245.4c0-5-3.4-8.4-8.4-8.4s-8.4,3.4-8.4,8.4s3.4,8.4,8.4,8.4S127.6,249.6,127.6,245.4"/>
</svg>
